<?xml version="1.0" encoding="UTF-8" standalone="no"?>
<!-- Created with Inkscape (http://www.inkscape.org/) -->

<svg
   width="210mm"
   height="297mm"
   viewBox="0 0 210 297"
   version="1.1"
   id="svg5"
   inkscape:version="1.1 (c4e8f9ed74, 2021-05-24)"
   sodipodi:docname="pipetting_range.svg"
   xmlns:inkscape="http://www.inkscape.org/namespaces/inkscape"
   xmlns:sodipodi="http://sodipodi.sourceforge.net/DTD/sodipodi-0.dtd"
   xmlns="http://www.w3.org/2000/svg"
   xmlns:svg="http://www.w3.org/2000/svg">
  <sodipodi:namedview
     id="namedview7"
     pagecolor="#ffffff"
     bordercolor="#999999"
     borderopacity="1"
     inkscape:pageshadow="0"
     inkscape:pageopacity="0"
     inkscape:pagecheckerboard="0"
     inkscape:document-units="mm"
     showgrid="false"
     inkscape:zoom="1.5215768"
     inkscape:cx="413.71555"
     inkscape:cy="526.09897"
     inkscape:window-width="1874"
     inkscape:window-height="1051"
     inkscape:window-x="46"
     inkscape:window-y="0"
     inkscape:window-maximized="1"
     inkscape:current-layer="layer1" />
  <defs
     id="defs2">
    <rect
       x="63.186709"
       y="44.675398"
       width="646.33404"
       height="121.26718"
       id="rect57469" />
    <rect
       x="587.62403"
       y="353.03279"
       width="176.04254"
       height="267.67235"
       id="rect35042" />
    <marker
       style="overflow:visible;"
       id="Arrow1Send"
       refX="0.0"
       refY="0.0"
       orient="auto"
       inkscape:stockid="Arrow1Send"
       inkscape:isstock="true">
      <path
         transform="scale(0.2) rotate(180) translate(6,0)"
         style="fill-rule:evenodd;fill:context-stroke;stroke:context-stroke;stroke-width:1.0pt;"
         d="M 0.0,0.0 L 5.0,-5.0 L -12.5,0.0 L 5.0,5.0 L 0.0,0.0 z "
         id="path11282" />
    </marker>
    <marker
       style="overflow:visible;"
       id="Arrow1Lend"
       refX="0.0"
       refY="0.0"
       orient="auto"
       inkscape:stockid="Arrow1Lend"
       inkscape:isstock="true">
      <path
         transform="scale(0.8) rotate(180) translate(12.5,0)"
         style="fill-rule:evenodd;fill:context-stroke;stroke:context-stroke;stroke-width:1.0pt;"
         d="M 0.0,0.0 L 5.0,-5.0 L -12.5,0.0 L 5.0,5.0 L 0.0,0.0 z "
         id="path11270" />
    </marker>
    <marker
       style="overflow:visible"
       id="TriangleInM"
       refX="0.0"
       refY="0.0"
       orient="auto"
       inkscape:stockid="TriangleInM"
       inkscape:isstock="true">
      <path
         transform="scale(-0.4)"
         style="fill-rule:evenodd;fill:context-stroke;stroke:context-stroke;stroke-width:1.0pt"
         d="M 5.77,0.0 L -2.88,5.0 L -2.88,-5.0 L 5.77,0.0 z "
         id="path11403" />
    </marker>
    <marker
       style="overflow:visible"
       id="TriangleOutM"
       refX="0.0"
       refY="0.0"
       orient="auto"
       inkscape:stockid="TriangleOutM"
       inkscape:isstock="true">
      <path
         transform="scale(0.4)"
         style="fill-rule:evenodd;fill:context-stroke;stroke:context-stroke;stroke-width:1.0pt"
         d="M 5.77,0.0 L -2.88,5.0 L -2.88,-5.0 L 5.77,0.0 z "
         id="path11412" />
    </marker>
    <clipPath
       clipPathUnits="userSpaceOnUse"
       id="clipPath1320">
      <rect
         style="fill:#0000ff;stroke:#0000ff;stroke-width:0.999998;paint-order:fill markers stroke"
         id="rect1322"
         width="51.528675"
         height="33.322956"
         x="272.80112"
         y="10.868697"
         transform="rotate(0.2)" />
    </clipPath>
    <marker
       style="overflow:visible"
       id="Arrow1Send-3"
       refX="0"
       refY="0"
       orient="auto"
       inkscape:stockid="Arrow1Send"
       inkscape:isstock="true">
      <path
         transform="matrix(-0.2,0,0,-0.2,-1.2,0)"
         style="fill:context-stroke;fill-rule:evenodd;stroke:context-stroke;stroke-width:1pt"
         d="M 0,0 5,-5 -12.5,0 5,5 Z"
         id="path11282-6" />
    </marker>
  </defs>
  <g
     inkscape:label="Layer 1"
     inkscape:groupmode="layer"
     id="layer1">
    <g
       id="g11115"
       transform="translate(-5.3954402,41.625866)">
      <g
         transform="rotate(-0.2,-4674.7139,8539.8925)"
         id="g898">
        <path
           style="fill:#313c47;stroke-width:1"
           d="m 105.32593,200.05507 c -1.81874,0.11822 -1.29097,0.27926 -7.25851,0.0286 -2.12108,-0.0891 -3.78704,-0.42151 -4.58719,-0.55061 -0.24644,-0.0398 -0.55155,0.11026 -0.83853,-1.31838 -0.18961,-0.94393 -0.33997,-1.06794 -0.80512,-1.2623 -0.40784,-0.17041 -0.52449,-0.31176 -0.53142,-0.64401 -0.0988,-4.73139 -0.0917,-9.48425 0.0323,-9.64129 0.0844,-0.10694 0.38583,-0.19444 0.66974,-0.19444 0.28391,0 0.55947,-0.07 0.61234,-0.15555 0.0529,-0.0856 0.25952,-0.15556 0.4592,-0.15556 0.42028,0 0.86657,-0.0983 0.86657,-0.92269 0,-0.71367 -0.18011,-0.88132 -1.17725,-1.0958 -0.42193,-0.0907 -0.87214,-0.2301 -1.00047,-0.30966 -0.16872,-0.1046 -0.2334,-0.14497 -0.2199,-2.14523 -0.40833,-37.86595 0.0448,-47.42024 -2.3475,-88.639511 -0.73176,-1.436516 -0.54652,-1.024784 -0.91958,-1.536805 -4.38221,-4.07958 -6.49013,-5.799209 -11.35201,-6.760156 -2.40276,-0.2807 -1.66478,-0.436984 -1.42473,-3.222364 0.10165,-1.179459 0.423,-2.341489 0.50409,-2.422583 0.0929,-0.09289 1.72606,0.578343 4.05385,1.335692 4.15205,1.350869 7.3771,2.209984 10.92802,2.911092 2.87405,0.567463 8.29453,1.39232 9.14953,1.39232 0.6053,0 0.60836,-0.0031 0.70685,-0.721695 0.0544,-0.396933 0.0962,-4.876835 0.0989,-9.955336 l 0.005,-9.154113 c 0.68107,0.0053 1.5749,-0.0015 2.36878,-0.0015 -0.0259,0.376863 0.0624,17.787295 0.0624,18.263225 0,0.995046 0.0333,1.686233 0.0704,1.986821 0.0178,0.143828 1.10729,0.118945 2.81221,0.271232 2.55071,0.227836 3.64669,0.397303 5.41724,1.180757 0.88799,0.39293 1.69148,1.160804 1.70357,1.62806 0.004,0.143154 0.16207,1.138671 0.24796,2.127443 0.0904,1.04039 0.12779,2.447371 0.17461,3.282817 0.0805,1.435724 0.10859,1.535702 0.51328,1.823863 0.69042,0.491624 1.10278,0.592756 3.13361,0.768522 6.03967,0.522725 5.73268,0.458843 7.82139,1.464942 1.65124,0.795375 2.64093,2.564127 3.02204,5.400927 0.27102,2.01733 0.21884,11.69795 -0.0851,15.78854 -0.13986,1.88218 -0.29633,4.36713 -0.34771,5.5221 -0.0514,1.15498 -0.19678,3.67492 -0.32309,5.59988 -0.12632,1.92496 -0.29637,4.5499 -0.37791,5.83321 -0.0815,1.2833 -0.25194,3.76825 -0.37868,5.5221 -0.12674,1.75385 -0.30512,4.37879 -0.3964,5.83321 -0.0913,1.45441 -0.30352,4.77933 -0.47167,7.38872 -0.16814,2.60939 -0.3424,5.37433 -0.38724,6.14431 -0.0448,0.76998 -0.14961,2.27495 -0.23281,3.34437 -0.0832,1.06942 -0.28946,4.11436 -0.45834,6.76652 -0.16889,2.65216 -0.3783,5.6971 -0.46536,6.76652 -0.0871,1.06941 -0.23425,2.95733 -0.32707,4.19536 -0.0928,1.23803 -0.19631,2.29552 -0.22996,2.34997 -0.0336,0.0544 -0.50509,0.13007 -0.93739,0.18127 -0.9464,0.11208 -1.0897,0.18921 -1.0897,0.58644 0,0.2988 -0.11908,0.3046 -5.30485,0.25818 -4.94484,-0.0443 -5.31909,-0.0669 -5.51461,-0.33435 -0.11537,-0.15778 -0.30523,-0.25024 -0.42191,-0.20546 -0.4702,0.18043 -0.57772,1.29851 -1.05794,11.00181 -0.77116,5.34313 0.953,4.36217 -4.1638,4.40055 z"
           id="path888"
           sodipodi:nodetypes="csssscssssscsccccsssssssccsssscssssssssssssssssssssssssccc" />
        <path
           style="fill:#e9f0f8;fill-opacity:1;stroke:none;stroke-width:0.1;stroke-linecap:butt;stroke-linejoin:miter;stroke-miterlimit:4;stroke-dasharray:none;stroke-opacity:1"
           d="m 123.90266,97.138244 0.13817,-10.560471 c 0.74513,-0.288937 1.79785,0.07503 2.50089,-1.040069 -0.14284,-0.968795 -2.50243,-1.131974 -2.50243,-1.131974 0,0 -8.87641,-0.705969 -9.60194,-0.721069 -0.17976,0.01181 -0.73003,0.227791 -0.76266,0.820057 -0.0304,1.314439 0.25009,0.93877 0.45739,1.707939 0.0787,1.156112 0.0177,6.002653 0.0177,6.002653 -0.078,1.372444 -0.21166,2.783908 0.37458,3.635405 2.09463,1.238022 6.39381,0.504265 9.37826,1.287529 z"
           id="path890"
           sodipodi:nodetypes="cccccccccc" />
      </g>
      <path
         id="path2448"
         style="fill:#e9f0f8;fill-opacity:1;stroke-width:1"
         d="m 71.846523,36.570488 c -0.19595,6.8e-4 -0.391894,0.0041 -0.587798,0.0094 -0.442801,0.0056 -0.885469,0.01972 -1.327868,0.05784 -0.0041,4.21e-4 -0.0081,5.44e-4 -0.01215,9.59e-4 -0.430514,0.02351 -0.860839,0.04807 -1.291115,0.06806 -0.386661,0.0088 -0.77304,0.01541 -1.157867,0.03611 -0.09519,9.68e-4 -0.190338,0.0014 -0.285509,0.0011 -0.253476,0.01457 -0.506894,0.03433 -0.759396,0.06119 -0.0031,3.18e-4 -0.006,6.4e-4 -0.0089,9.58e-4 -0.411967,0.03578 -0.820297,0.105009 -1.222893,0.200674 -0.04481,0.01032 -0.08956,0.0209 -0.134213,0.03195 -0.0039,9.83e-4 -0.0078,0.0019 -0.01166,0.0029 -0.172818,0.04306 -0.34444,0.09135 -0.514469,0.146511 -0.220557,0.06928 -0.438497,0.146823 -0.654108,0.230391 -0.396115,0.143657 -0.795337,0.313127 -1.164894,0.525011 -0.346235,0.166727 -0.638473,0.398306 -0.885456,0.672479 -0.203943,0.211882 -0.377419,0.45281 -0.509351,0.728081 -0.06038,0.110221 -0.116282,0.223247 -0.168242,0.338237 -0.141535,0.273034 -0.241709,0.558221 -0.308998,0.850465 -0.02177,0.07573 -0.04247,0.151412 -0.06167,0.226876 -0.0028,0.05527 -0.0068,0.113317 -0.01039,0.170157 -0.03289,0.250501 -0.04412,0.504512 -0.03962,0.758916 -0.0031,0.163905 9.27e-4,0.327568 0.01598,0.488423 -0.02272,0.385457 0.08506,0.680058 0.274649,0.898397 0.05236,0.08427 0.112914,0.164981 0.184217,0.240936 0.07382,0.02521 0.149456,0.04759 0.225755,0.06886 0.287034,0.1428 0.633671,0.208611 0.980361,0.215053 0.179629,0.03626 0.359481,0.07495 0.537793,0.122065 0.410216,0.144732 0.808721,0.320021 1.193653,0.522294 0.431266,0.25113 0.864791,0.509527 1.275459,0.797263 0.302942,0.221088 0.594521,0.457439 0.873634,0.70635 0.179656,0.170953 0.349339,0.35253 0.504716,0.548657 0.0553,0.05842 0.106722,0.122045 0.156735,0.187572 0.18908,0.277332 0.356024,0.574483 0.540352,0.850785 0.216189,0.3468 0.454686,0.662199 0.804607,0.824423 0.0039,0.0023 0.0076,0.0047 0.0115,0.0069 0.0019,4.95e-4 0.0037,7.73e-4 0.0056,0.0013 0.137012,0.0609 0.290828,0.09865 0.467016,0.105769 0.04918,0.0014 0.09843,0.0021 0.147629,0.0034 0.424902,0.04353 0.855342,0.03163 1.286168,0.01837 0.373883,0.0018 0.747885,0.0017 1.122076,6.49e-4 0.0015,9.7e-5 0.0031,6.3e-5 0.0045,1.61e-4 0.03244,-2.95e-4 0.06487,-2.28e-4 0.09731,-4.95e-4 0.300972,-9.59e-4 0.602055,-0.0021 0.903033,-0.0027 0.06237,5.4e-5 0.124719,-1.17e-4 0.187092,0 0.301062,5.57e-4 0.60213,0.0018 0.903191,0.0027 0.03238,2.51e-4 0.06476,1.85e-4 0.09714,4.95e-4 0.0015,-9.8e-5 0.0031,-6.4e-5 0.0045,-1.61e-4 0.374144,0.0011 0.748237,0.0012 1.122079,-6.49e-4 0.430817,0.01326 0.861257,0.02515 1.286159,-0.01837 0.0492,-0.0013 0.09845,-0.0019 0.147629,-0.0034 0.176197,-0.0071 0.330004,-0.04487 0.467016,-0.105769 0.0019,-4.95e-4 0.0037,-7.73e-4 0.0056,-0.0013 0.004,-0.0023 0.0077,-0.0047 0.01166,-0.007 0.349797,-0.162255 0.588312,-0.47754 0.804452,-0.824262 0.184767,-0.276961 0.352147,-0.574809 0.54179,-0.852703 0.04956,-0.06482 0.100544,-0.127815 0.155296,-0.185655 0.154901,-0.195524 0.323923,-0.376563 0.502958,-0.547059 0.27966,-0.24949 0.571811,-0.486391 0.875392,-0.707948 0.410678,-0.287735 0.8442,-0.546132 1.275459,-0.797262 0.385022,-0.20232 0.783666,-0.377544 1.193975,-0.522294 0.178182,-0.04707 0.357972,-0.08583 0.537471,-0.122066 0.3467,-0.0065 0.693504,-0.07223 0.980526,-0.215053 0.07622,-0.02126 0.151843,-0.04368 0.225597,-0.06886 0.07144,-0.0761 0.132105,-0.156967 0.184533,-0.241416 0.189324,-0.21829 0.297036,-0.512749 0.274327,-0.897917 0.01518,-0.160855 0.01905,-0.324519 0.01598,-0.488423 0.0045,-0.253813 -0.0069,-0.507225 -0.03963,-0.757159 -0.0036,-0.05744 -0.0076,-0.116075 -0.01039,-0.171914 -0.01929,-0.07583 -0.04012,-0.151897 -0.06199,-0.227995 -0.06729,-0.291854 -0.16732,-0.576661 -0.308676,-0.849347 -0.05224,-0.115599 -0.108453,-0.229219 -0.169201,-0.339995 -0.131827,-0.274531 -0.304889,-0.514895 -0.508392,-0.726322 -0.24711,-0.27431 -0.539475,-0.506054 -0.885936,-0.6728 -6.18e-4,-3.71e-4 -0.0015,-7.42e-4 -0.0022,-0.0011 -0.368827,-0.211178 -0.767014,-0.380256 -1.162186,-0.523572 -0.215611,-0.08357 -0.43355,-0.161108 -0.654108,-0.230391 -0.170029,-0.05516 -0.34165,-0.103448 -0.514459,-0.146511 -0.0039,-9.68e-4 -0.0078,-0.0019 -0.01166,-0.0029 -0.04466,-0.01106 -0.08939,-0.02164 -0.134207,-0.03195 -0.402596,-0.09566 -0.810933,-0.164898 -1.222899,-0.200673 -0.0031,-2.6e-4 -0.006,-7.02e-4 -0.0089,-9.59e-4 -0.252502,-0.02686 -0.505929,-0.04662 -0.759396,-0.06119 -0.09517,2.87e-4 -0.190332,-1.51e-4 -0.285519,-0.0011 -0.384817,-0.0207 -0.771206,-0.02727 -1.157866,-0.03611 -0.430276,-0.02 -0.860595,-0.04456 -1.291116,-0.06806 -0.004,-4.14e-4 -0.0081,-5.38e-4 -0.01215,-9.58e-4 -0.442374,-0.03811 -0.885095,-0.05223 -1.327862,-0.05784 -0.195901,-0.0053 -0.391854,-0.0087 -0.587805,-0.0094 -0.196516,0.0033 -0.393038,0.0043 -0.589555,0.0048 -0.196565,-4.85e-4 -0.393147,-0.0015 -0.589718,-0.0048 z" />
      <path
         id="path3009"
         style="fill:#edc252;stroke-width:0.999997"
         d="m 71.148756,36.427438 c -2.164798,-1.79e-4 -4.349752,0.114848 -6.46502,0.593354 -1.061536,0.291409 -2.09331,0.728027 -3.020626,1.324413 -0.674805,0.451826 -0.614079,1.70908 0.400212,1.40735 0.915205,-0.06287 1.832627,-0.08097 2.748503,-0.03266 1.350425,-0.21745 2.739556,-0.13402 4.107097,-0.189215 2.125567,-0.03774 4.250228,-0.07829 6.375656,-0.01208 1.570287,0.04043 3.148502,0.0053 4.712488,0.150146 0.762883,0.120899 1.554668,-0.04841 2.328929,0.04755 0.592832,0.06341 1.851515,0.232443 1.487474,-0.744246 -0.2812,-0.846531 -1.243305,-1.055148 -1.945242,-1.433845 -1.759195,-0.791567 -3.716814,-0.905899 -5.614495,-1.058519 -1.703865,-0.08982 -3.410035,-0.02556 -5.114976,-0.05225 z" />
    </g>
    <path
       style="fill:none;stroke:#000000;stroke-width:0.665;stroke-linecap:butt;stroke-linejoin:miter;stroke-miterlimit:4;stroke-dasharray:none;stroke-opacity:1;marker-start:url(#TriangleOutM);marker-end:url(#TriangleInM)"
       d="M 98.5315,90.729544 V 109.4331"
       id="path11185" />
    <path
       style="fill:none;stroke:#000000;stroke-width:0.264582;stroke-linecap:butt;stroke-linejoin:miter;stroke-miterlimit:4;stroke-dasharray:0.264582, 0.529166;stroke-dashoffset:0;stroke-opacity:1"
       d="M 68.13918,89.922084 H 111.7789"
       id="path11627" />
    <path
       style="fill:none;stroke:#000000;stroke-width:0.264582;stroke-linecap:butt;stroke-linejoin:miter;stroke-miterlimit:4;stroke-dasharray:0.264582, 0.529166;stroke-dashoffset:0;stroke-opacity:1"
       d="M 68.13918,110.29499 H 111.7789"
       id="path11709" />
    <path
       style="fill:none;stroke:#ff0000;stroke-width:0.665;stroke-linecap:butt;stroke-linejoin:miter;stroke-miterlimit:4;stroke-dasharray:none;stroke-opacity:1;marker-start:url(#TriangleOutM);marker-end:url(#TriangleInM)"
       d="m 104.33377,91.3451 v 17.48952"
       id="path11730" />
    <text
       xml:space="preserve"
       style="font-style:normal;font-weight:normal;font-size:2.74013px;line-height:1.25;font-family:sans-serif;fill:#000000;fill-opacity:1;stroke:none;stroke-width:0.264584"
       x="97.648445"
       y="84.14608"
       id="text14042"><tspan
         sodipodi:role="line"
         id="tspan14040"
         style="stroke-width:0.264584"
         x="97.648445"
         y="84.14608">Full displacement range</tspan></text>
    <text
       xml:space="preserve"
       style="font-style:normal;font-weight:normal;font-size:2.74013px;line-height:1.25;font-family:sans-serif;fill:#000000;fill-opacity:1;stroke:none;stroke-width:0.264584"
       x="151.41879"
       y="95.903557"
       id="text14042-9"><tspan
         style="stroke-width:0.264584"
         x="151.41879"
         y="95.903557"
         id="tspan22078"
         sodipodi:role="line" /></text>
    <path
       style="fill:none;stroke:#000000;stroke-width:0.265;stroke-linecap:butt;stroke-linejoin:miter;stroke-miterlimit:4;stroke-dasharray:none;stroke-opacity:1;marker-end:url(#Arrow1Send)"
       d="m 97.23623,84.702353 c -3.90238,2.732379 -3.16186,5.748644 0,8.9105"
       id="path14387" />
    <text
       xml:space="preserve"
       style="font-style:normal;font-weight:normal;font-size:2.74013px;line-height:1.25;font-family:sans-serif;fill:#ff0000;fill-opacity:1;stroke:none;stroke-width:0.264584"
       x="115.01188"
       y="97.28804"
       id="text14042-7"><tspan
         sodipodi:role="line"
         id="tspan14040-5"
         style="fill:#ff0000;stroke-width:0.264584"
         x="115.01188"
         y="97.28804">Usable displacement range</tspan><tspan
         sodipodi:role="line"
         style="fill:#ff0000;stroke-width:0.264584"
         x="115.01188"
         y="100.7132"
         id="tspan16064" /></text>
    <text
       xml:space="preserve"
       style="font-style:normal;font-weight:normal;font-size:2.74013px;line-height:1.25;font-family:sans-serif;fill:#ff0000;fill-opacity:1;stroke:none;stroke-width:0.264584"
       x="119.35287"
       y="100.50706"
       id="text14042-7-5"><tspan
         sodipodi:role="line"
         id="tspan14040-5-6"
         style="fill:#ff0000;stroke-width:0.264584"
         x="119.35287"
         y="100.50706">(narrower on both ends)</tspan><tspan
         sodipodi:role="line"
         style="fill:#ff0000;stroke-width:0.264584"
         x="119.35287"
         y="103.93222"
         id="tspan16064-2" /></text>
    <path
       style="fill:none;stroke:#ff0000;stroke-width:0.265;stroke-linecap:butt;stroke-linejoin:miter;stroke-miterlimit:4;stroke-dasharray:none;stroke-opacity:1;marker-end:url(#Arrow1Send-3)"
       d="m 115.08234,98.165699 c -2.73238,3.902381 -5.74865,3.161861 -8.9105,0"
       id="path14387-3" />
    <text
       xml:space="preserve"
       transform="matrix(0.26458333,0,0,0.26458333,-30.970926,9.0092856)"
       id="text35040"
       style="font-style:normal;font-weight:normal;font-size:10.3564px;line-height:1.25;font-family:sans-serif;white-space:pre;shape-inside:url(#rect35042);fill:#000000;fill-opacity:1;stroke:none"
       x="0"
       y="0"><tspan
         x="587.625"
         y="361.87757"
         id="tspan62511"><tspan
           dx="0 0 0 7.4743919 0 0 7.4743938 0 0 0 0 0 0 0 0 7.4743919 0 0 7.4743919 0 0 0 7.4743919 0 0 0 7.4743919"
           style="text-align:justify"
           id="tspan62509">It is narrower on the top end,
</tspan></tspan><tspan
         x="587.625"
         y="374.82306"
         id="tspan62515"><tspan
           dx="0 0 0 0 0 0 0 0 9.5260887 0 0 0 0 0 9.5260887 0 0 9.5260887 0 0 9.5260887"
           style="text-align:justify"
           id="tspan62513">because there is no feddback.
</tspan></tspan><tspan
         x="587.625"
         y="387.76856"
         id="tspan62519"><tspan
           dx="0 0 0 0 10.841368 0 0 0 0 0 0 0 0 0 0 10.841366 0 0 0 0 10.841366 0 0 0 10.841366"
           style="text-align:justify"
           id="tspan62517">The controller does not know
</tspan></tspan><tspan
         x="587.625"
         y="400.71406"
         id="tspan62523"><tspan
           dx="0 0 0 4.6643519 0 0 0 4.6643524 0 0 0 4.6643486 0 0 0 4.6643486 0 0 0 4.6643486 0 0 0 0 4.6643486"
           style="text-align:justify"
           id="tspan62521">if the top end has been reached,
</tspan></tspan><tspan
         x="587.625"
         y="413.65955"
         id="tspan62527"><tspan
           dx="0 0 0 8.697958 0 0 8.697958 0 0 8.6979599 0 0 0 0 0 0 0 0 8.6979637 0 0 0 0 0 0 0 0 0 0 8.6979637"
           style="text-align:justify"
           id="tspan62525">so it is manually calibrated to
</tspan></tspan><tspan
         x="587.625"
         y="426.60505"
         id="tspan62531"><tspan
           dx="0 0 0 0 0 0 55.563633 0 0 0 0 0 55.563641"
           style="text-align:justify"
           id="tspan62529">never reach it.
</tspan></tspan><tspan
         x="587.625"
         y="439.55054"
         id="tspan62535"><tspan
           style="text-align:justify"
           id="tspan62533">
</tspan></tspan><tspan
         x="587.625"
         y="452.49604"
         id="tspan62539"><tspan
           dx="0 0 0 0 1.0079956 0 0 0 0 0 1.0079956 0 0 0 1.0079994 0 0 1.0079918 0 0 0 0 1.0079918 0 0 0 1.0079918 0 0 0 0 0 0 0 0 1.0079918"
           style="text-align:justify"
           id="tspan62537">The lower end is also not reached, to </tspan></tspan><tspan
         x="587.625"
         y="465.44153"
         id="tspan62543"><tspan
           dx="0 0 0 0 0 0 9.5027847 0 0 0 9.5027847 0 0 0 0 0 0 0 9.5027809 0 0 0 0 0 0 9.5027733"
           style="text-align:justify"
           id="tspan62541">avoid the tougher second stop
</tspan></tspan><tspan
         x="587.625"
         y="478.38703"
         id="tspan62547"><tspan
           dx="0 0 0 0 0 0 0 0 4.9344406 0 0 0 0 0 4.9344368 0 0 0 0 0 4.9344368 0 0 0 0 0 4.9344444 0 0 0 0 4.9344444"
           style="text-align:justify"
           id="tspan62545">spring, which could cause loss of
</tspan></tspan><tspan
         x="587.625"
         y="491.33252"
         id="tspan62551"><tspan
           dx="0 0 0 0 0 0 0 0.42803955 0 0 0.42803955 0 0 0 0 0.42803955 0 0 0 0 0 0.42804337 0 0 0 0.42804337 0 0 0.42804337 0 0 0.42803574"
           style="text-align:justify"
           id="tspan62549">steps. If this turns out to be negligible, </tspan></tspan><tspan
         x="587.625"
         y="504.27802"
         id="tspan62555"><tspan
           dx="0 0 0 0 0 6.6268902 0 6.6268921 0 0 0 0 0 0 6.6268883 0 0 0 6.6268959 0 0 6.6268959 0 0 0 0 0 6.6268883"
           style="text-align:justify"
           id="tspan62553">then a usable 200 uL range is </tspan></tspan><tspan
         x="587.625"
         y="517.22352"
         id="tspan62559"><tspan
           style="text-align:justify"
           id="tspan62557">feasible.
</tspan></tspan><tspan
         x="587.625"
         y="530.16901"
         id="tspan62563"><tspan
           style="text-align:justify"
           id="tspan62561">
</tspan></tspan><tspan
         x="587.625"
         y="543.11451"
         id="tspan62567"><tspan
           dx="0 0 0 0 0 0 11.555958 0 0 0 0 0 0 11.555958 0 0 0 0 0 0 0 0 11.555965 0 0 0 11.55595"
           style="text-align:justify"
           id="tspan62565">Note: Gilson pipettes can be </tspan></tspan><tspan
         x="587.625"
         y="556.06"
         id="tspan62571"><tspan
           dx="0 0 0 0 0 0 0 0 0 0 0 4.5326118 0 0 4.532608 0 0 0 0 0 0 4.5326195 0 0 4.5326118 0 0 0 0 0 0 4.5326195"
           style="text-align:justify"
           id="tspan62569">calibrated to extend or reduce the </tspan></tspan><tspan
         x="587.625"
         y="569.0055"
         id="tspan62575"><tspan
           dx="0 0 0 0 0 0 0 0 0 0 0 0 0 4.7169304 0 0 4.7169304 0 0 0 4.7169304 0 0 4.7169304 0 0 0 4.7169304"
           style="text-align:justify"
           id="tspan62573">displacement on one of the ends, </tspan></tspan><tspan
         x="587.625"
         y="581.95099"
         id="tspan62579"><tspan
           dx="0 0 0 0 0 0 1.3106289 0 1.3106308 0 0 0 0 0 0 0 1.310627 0 0 0 0 0 1.310627 0 0 0 1.310627 0 0 0 0 0 0 0 0 1.3106194"
           style="text-align:justify"
           id="tspan62577">using a special tool. The downside is </tspan></tspan><tspan
         x="587.625"
         y="594.89649"
         id="tspan62583"><tspan
           dx="0 0 0 0 0 0.62924385 0 0 0 0.62924576 0 0 0 0 0 0 0 0.62923813 0 0 0.62923813 0 0 0.62924576 0 0 0 0 0 0 0.62924576 0 0 0 0 0 0 0.62923813"
           style="text-align:justify"
           id="tspan62581">that the pipette is no longer usable by </tspan></tspan><tspan
         x="587.625"
         y="607.84198"
         id="tspan62587"><tspan
           style="text-align:justify"
           id="tspan62585">hand (without recalibration).</tspan></tspan></text>
    <text
       xml:space="preserve"
       transform="matrix(0.26458333,0,0,0.26458333,8.09195,12.203101)"
       id="text57467"
       style="font-style:normal;font-weight:normal;font-size:40px;line-height:1.25;font-family:sans-serif;white-space:pre;shape-inside:url(#rect57469);fill:#000000;fill-opacity:1;stroke:none"><tspan
         x="63.1875"
         y="78.835781"
         id="tspan62589">Pipetting range calibration </tspan><tspan
         x="63.1875"
         y="128.83578"
         id="tspan62591">(explanation)</tspan></text>
  </g>
</svg>
