solid OpenSCAD_Model
  facet normal 0 0 -1
    outer loop
      vertex -5.62629 -6 0
      vertex -6.31175 -1.10833 0
      vertex -5.62629 -1.10833 0
    endloop
  endfacet
  facet normal 0 0 -1
    outer loop
      vertex -8.61081 -1.10833 0
      vertex -6.31175 -1.10833 0
      vertex -5.62629 -6 0
    endloop
  endfacet
  facet normal 0 0 -1
    outer loop
      vertex -6.31175 -1.10833 0
      vertex -8.61081 -1.10833 0
      vertex -7.06092 0.95 0
    endloop
  endfacet
  facet normal -0 0 -1
    outer loop
      vertex -7.06092 0.95 0
      vertex -8.61081 -1.10833 0
      vertex -7.86163 0.95 0
    endloop
  endfacet
  facet normal 0 0 -1
    outer loop
      vertex -5.62629 -6 0
      vertex -9.29626 -1.10833 0
      vertex -8.61081 -1.10833 0
    endloop
  endfacet
  facet normal 0 0 -1
    outer loop
      vertex -9.29626 -1.10833 0
      vertex -10.8461 0.95 0
      vertex -10.0454 0.95 0
    endloop
  endfacet
  facet normal 0 0 -1
    outer loop
      vertex -11.5953 -1.10833 0
      vertex -9.29626 -1.10833 0
      vertex -5.62629 -6 0
    endloop
  endfacet
  facet normal 0 0 -1
    outer loop
      vertex -9.29626 -1.10833 0
      vertex -11.5953 -1.10833 0
      vertex -10.8461 0.95 0
    endloop
  endfacet
  facet normal 0 0 -1
    outer loop
      vertex -5.62629 -6 0
      vertex -12.2808 -1.10833 0
      vertex -11.5953 -1.10833 0
    endloop
  endfacet
  facet normal 0 0 -1
    outer loop
      vertex -12.2808 -1.10833 0
      vertex -13.8307 0.95 0
      vertex -13.0299 0.95 0
    endloop
  endfacet
  facet normal 0 0 -1
    outer loop
      vertex -12.2808 -1.10833 0
      vertex -14.5798 -1.10833 0
      vertex -13.8307 0.95 0
    endloop
  endfacet
  facet normal 0 0 -1
    outer loop
      vertex -5.62629 -6 0
      vertex -14.5798 -1.10833 0
      vertex -12.2808 -1.10833 0
    endloop
  endfacet
  facet normal 0 0 -1
    outer loop
      vertex -5.62629 -6 0
      vertex -15.2653 -1.10833 0
      vertex -14.5798 -1.10833 0
    endloop
  endfacet
  facet normal 0 0 -1
    outer loop
      vertex -15.2653 -1.10833 0
      vertex -16.8152 0.95 0
      vertex -16.0145 0.95 0
    endloop
  endfacet
  facet normal 0 0 -1
    outer loop
      vertex -15.2653 -1.10833 0
      vertex -17.5643 -1.10833 0
      vertex -16.8152 0.95 0
    endloop
  endfacet
  facet normal 0 0 -1
    outer loop
      vertex -5.62629 -6 0
      vertex -17.5643 -1.10833 0
      vertex -15.2653 -1.10833 0
    endloop
  endfacet
  facet normal 0 0 -1
    outer loop
      vertex -5.62629 -6 0
      vertex -18.2498 -1.10833 0
      vertex -17.5643 -1.10833 0
    endloop
  endfacet
  facet normal 0 0 -1
    outer loop
      vertex -18.2498 -1.10833 0
      vertex -19.7997 0.95 0
      vertex -18.999 0.95 0
    endloop
  endfacet
  facet normal 0 0 -1
    outer loop
      vertex -18.2498 -1.10833 0
      vertex -20.5488 -1.10833 0
      vertex -19.7997 0.95 0
    endloop
  endfacet
  facet normal 0 0 -1
    outer loop
      vertex -5.62629 -6 0
      vertex -20.5488 -1.10833 0
      vertex -18.2498 -1.10833 0
    endloop
  endfacet
  facet normal 0 0 -1
    outer loop
      vertex -5.62629 -6 0
      vertex -21.2343 -1.10833 0
      vertex -20.5488 -1.10833 0
    endloop
  endfacet
  facet normal 0 0 -1
    outer loop
      vertex -21.2343 -1.10833 0
      vertex -22.7842 0.95 0
      vertex -21.9835 0.95 0
    endloop
  endfacet
  facet normal 0 0 -1
    outer loop
      vertex -21.2343 -1.10833 0
      vertex -23.5334 -1.10833 0
      vertex -22.7842 0.95 0
    endloop
  endfacet
  facet normal 0 0 -1
    outer loop
      vertex -5.62629 -6 0
      vertex -23.5334 -1.10833 0
      vertex -21.2343 -1.10833 0
    endloop
  endfacet
  facet normal 0 0 -1
    outer loop
      vertex -5.62629 -6 0
      vertex -24.2188 -1.10833 0
      vertex -23.5334 -1.10833 0
    endloop
  endfacet
  facet normal 0 0 -1
    outer loop
      vertex -24.2188 -1.10833 0
      vertex -25.7687 0.95 0
      vertex -24.968 0.95 0
    endloop
  endfacet
  facet normal 0 0 -1
    outer loop
      vertex -24.2188 -1.10833 0
      vertex -26.5179 -1.10833 0
      vertex -25.7687 0.95 0
    endloop
  endfacet
  facet normal 0 0 -1
    outer loop
      vertex -5.62629 -6 0
      vertex -26.5179 -1.10833 0
      vertex -24.2188 -1.10833 0
    endloop
  endfacet
  facet normal 0 0 -1
    outer loop
      vertex -44.4249 -6 0
      vertex -26.5179 -1.10833 0
      vertex -5.62629 -6 0
    endloop
  endfacet
  facet normal 0 0 -1
    outer loop
      vertex -27.2033 -1.10833 0
      vertex -28.7532 0.95 0
      vertex -27.9525 0.95 0
    endloop
  endfacet
  facet normal 0 0 -1
    outer loop
      vertex -27.2033 -1.10833 0
      vertex -29.5024 -1.10833 0
      vertex -28.7532 0.95 0
    endloop
  endfacet
  facet normal -0 0 -1
    outer loop
      vertex -26.5179 -1.10833 0
      vertex -44.4249 -6 0
      vertex -27.2033 -1.10833 0
    endloop
  endfacet
  facet normal -0 0 -1
    outer loop
      vertex -27.2033 -1.10833 0
      vertex -44.4249 -6 0
      vertex -29.5024 -1.10833 0
    endloop
  endfacet
  facet normal 0 0 -1
    outer loop
      vertex -30.1878 -1.10833 0
      vertex -31.7377 0.95 0
      vertex -30.937 0.95 0
    endloop
  endfacet
  facet normal 0 0 -1
    outer loop
      vertex -30.1878 -1.10833 0
      vertex -32.4869 -1.10833 0
      vertex -31.7377 0.95 0
    endloop
  endfacet
  facet normal -0 0 -1
    outer loop
      vertex -29.5024 -1.10833 0
      vertex -44.4249 -6 0
      vertex -30.1878 -1.10833 0
    endloop
  endfacet
  facet normal -0 0 -1
    outer loop
      vertex -30.1878 -1.10833 0
      vertex -44.4249 -6 0
      vertex -32.4869 -1.10833 0
    endloop
  endfacet
  facet normal 0 0 -1
    outer loop
      vertex -33.1723 -1.10833 0
      vertex -34.7222 0.95 0
      vertex -33.9215 0.95 0
    endloop
  endfacet
  facet normal 0 0 -1
    outer loop
      vertex -33.1723 -1.10833 0
      vertex -35.4714 -1.10833 0
      vertex -34.7222 0.95 0
    endloop
  endfacet
  facet normal -0 0 -1
    outer loop
      vertex -32.4869 -1.10833 0
      vertex -44.4249 -6 0
      vertex -33.1723 -1.10833 0
    endloop
  endfacet
  facet normal -0 0 -1
    outer loop
      vertex -33.1723 -1.10833 0
      vertex -44.4249 -6 0
      vertex -35.4714 -1.10833 0
    endloop
  endfacet
  facet normal 0 0 -1
    outer loop
      vertex -36.1569 -1.10833 0
      vertex -37.7067 0.95 0
      vertex -36.906 0.95 0
    endloop
  endfacet
  facet normal 0 0 -1
    outer loop
      vertex -36.1569 -1.10833 0
      vertex -38.4559 -1.10833 0
      vertex -37.7067 0.95 0
    endloop
  endfacet
  facet normal -0 0 -1
    outer loop
      vertex -35.4714 -1.10833 0
      vertex -44.4249 -6 0
      vertex -36.1569 -1.10833 0
    endloop
  endfacet
  facet normal -0 0 -1
    outer loop
      vertex -36.1569 -1.10833 0
      vertex -44.4249 -6 0
      vertex -38.4559 -1.10833 0
    endloop
  endfacet
  facet normal 0 0 -1
    outer loop
      vertex -39.1414 -1.10833 0
      vertex -40.6912 0.95 0
      vertex -39.8905 0.95 0
    endloop
  endfacet
  facet normal 0 0 -1
    outer loop
      vertex -39.1414 -1.10833 0
      vertex -41.4404 -1.10833 0
      vertex -40.6912 0.95 0
    endloop
  endfacet
  facet normal -0 0 -1
    outer loop
      vertex -38.4559 -1.10833 0
      vertex -44.4249 -6 0
      vertex -39.1414 -1.10833 0
    endloop
  endfacet
  facet normal -0 0 -1
    outer loop
      vertex -39.1414 -1.10833 0
      vertex -44.4249 -6 0
      vertex -41.4404 -1.10833 0
    endloop
  endfacet
  facet normal 0 0 -1
    outer loop
      vertex -42.1259 -1.10833 0
      vertex -43.6758 0.95 0
      vertex -42.875 0.95 0
    endloop
  endfacet
  facet normal -0 0 -1
    outer loop
      vertex -41.4404 -1.10833 0
      vertex -44.4249 -6 0
      vertex -42.1259 -1.10833 0
    endloop
  endfacet
  facet normal 0 0 -1
    outer loop
      vertex -44.4249 -1.10833 0
      vertex -42.1259 -1.10833 0
      vertex -44.4249 -6 0
    endloop
  endfacet
  facet normal 0 0 -1
    outer loop
      vertex -42.1259 -1.10833 0
      vertex -44.4249 -1.10833 0
      vertex -43.6758 0.95 0
    endloop
  endfacet
  facet normal -0.939703 0.341992 0
    outer loop
      vertex -44.4249 -1.10833 0
      vertex -43.6758 0.95 6
      vertex -43.6758 0.95 0
    endloop
  endfacet
  facet normal -0.939703 0.341992 0
    outer loop
      vertex -43.6758 0.95 6
      vertex -44.4249 -1.10833 0
      vertex -44.4249 -1.10833 6
    endloop
  endfacet
  facet normal 0 1 -0
    outer loop
      vertex -42.875 0.95 0
      vertex -43.6758 0.95 6
      vertex -42.875 0.95 6
    endloop
  endfacet
  facet normal 0 1 0
    outer loop
      vertex -43.6758 0.95 6
      vertex -42.875 0.95 0
      vertex -43.6758 0.95 0
    endloop
  endfacet
  facet normal 0.939703 0.341992 0
    outer loop
      vertex -42.1259 -1.10833 6
      vertex -42.875 0.95 0
      vertex -42.875 0.95 6
    endloop
  endfacet
  facet normal 0.939703 0.341992 0
    outer loop
      vertex -42.875 0.95 0
      vertex -42.1259 -1.10833 6
      vertex -42.1259 -1.10833 0
    endloop
  endfacet
  facet normal 0 1 -0
    outer loop
      vertex -41.4404 -1.10833 0
      vertex -42.1259 -1.10833 6
      vertex -41.4404 -1.10833 6
    endloop
  endfacet
  facet normal 0 1 0
    outer loop
      vertex -42.1259 -1.10833 6
      vertex -41.4404 -1.10833 0
      vertex -42.1259 -1.10833 0
    endloop
  endfacet
  facet normal 0 -1 0
    outer loop
      vertex -44.4249 -6 0
      vertex -5.62629 -6 6
      vertex -44.4249 -6 6
    endloop
  endfacet
  facet normal 0 -1 -0
    outer loop
      vertex -5.62629 -6 6
      vertex -44.4249 -6 0
      vertex -5.62629 -6 0
    endloop
  endfacet
  facet normal -1 0 0
    outer loop
      vertex -44.4249 -6 0
      vertex -44.4249 -1.10833 6
      vertex -44.4249 -1.10833 0
    endloop
  endfacet
  facet normal -1 -0 0
    outer loop
      vertex -44.4249 -1.10833 6
      vertex -44.4249 -6 0
      vertex -44.4249 -6 6
    endloop
  endfacet
  facet normal -0 0 1
    outer loop
      vertex -6.31175 -1.10833 6
      vertex -5.62629 -6 6
      vertex -5.62629 -1.10833 6
    endloop
  endfacet
  facet normal 0 0 1
    outer loop
      vertex -8.61081 -1.10833 6
      vertex -6.31175 -1.10833 6
      vertex -7.06092 0.95 6
    endloop
  endfacet
  facet normal 0 0 1
    outer loop
      vertex -8.61081 -1.10833 6
      vertex -7.06092 0.95 6
      vertex -7.86163 0.95 6
    endloop
  endfacet
  facet normal 0 0 1
    outer loop
      vertex -6.31175 -1.10833 6
      vertex -8.61081 -1.10833 6
      vertex -5.62629 -6 6
    endloop
  endfacet
  facet normal -0 0 1
    outer loop
      vertex -9.29626 -1.10833 6
      vertex -5.62629 -6 6
      vertex -8.61081 -1.10833 6
    endloop
  endfacet
  facet normal -0 0 1
    outer loop
      vertex -10.8461 0.95 6
      vertex -9.29626 -1.10833 6
      vertex -10.0454 0.95 6
    endloop
  endfacet
  facet normal 0 0 1
    outer loop
      vertex -11.5953 -1.10833 6
      vertex -9.29626 -1.10833 6
      vertex -10.8461 0.95 6
    endloop
  endfacet
  facet normal 0 0 1
    outer loop
      vertex -9.29626 -1.10833 6
      vertex -11.5953 -1.10833 6
      vertex -5.62629 -6 6
    endloop
  endfacet
  facet normal -0 0 1
    outer loop
      vertex -12.2808 -1.10833 6
      vertex -5.62629 -6 6
      vertex -11.5953 -1.10833 6
    endloop
  endfacet
  facet normal -0 0 1
    outer loop
      vertex -13.8307 0.95 6
      vertex -12.2808 -1.10833 6
      vertex -13.0299 0.95 6
    endloop
  endfacet
  facet normal 0 0 1
    outer loop
      vertex -14.5798 -1.10833 6
      vertex -12.2808 -1.10833 6
      vertex -13.8307 0.95 6
    endloop
  endfacet
  facet normal -0 0 1
    outer loop
      vertex -14.5798 -1.10833 6
      vertex -5.62629 -6 6
      vertex -12.2808 -1.10833 6
    endloop
  endfacet
  facet normal -0 0 1
    outer loop
      vertex -15.2653 -1.10833 6
      vertex -5.62629 -6 6
      vertex -14.5798 -1.10833 6
    endloop
  endfacet
  facet normal -0 0 1
    outer loop
      vertex -16.8152 0.95 6
      vertex -15.2653 -1.10833 6
      vertex -16.0145 0.95 6
    endloop
  endfacet
  facet normal 0 0 1
    outer loop
      vertex -17.5643 -1.10833 6
      vertex -15.2653 -1.10833 6
      vertex -16.8152 0.95 6
    endloop
  endfacet
  facet normal -0 0 1
    outer loop
      vertex -17.5643 -1.10833 6
      vertex -5.62629 -6 6
      vertex -15.2653 -1.10833 6
    endloop
  endfacet
  facet normal -0 0 1
    outer loop
      vertex -18.2498 -1.10833 6
      vertex -5.62629 -6 6
      vertex -17.5643 -1.10833 6
    endloop
  endfacet
  facet normal -0 0 1
    outer loop
      vertex -19.7997 0.95 6
      vertex -18.2498 -1.10833 6
      vertex -18.999 0.95 6
    endloop
  endfacet
  facet normal 0 0 1
    outer loop
      vertex -20.5488 -1.10833 6
      vertex -18.2498 -1.10833 6
      vertex -19.7997 0.95 6
    endloop
  endfacet
  facet normal -0 0 1
    outer loop
      vertex -20.5488 -1.10833 6
      vertex -5.62629 -6 6
      vertex -18.2498 -1.10833 6
    endloop
  endfacet
  facet normal -0 0 1
    outer loop
      vertex -21.2343 -1.10833 6
      vertex -5.62629 -6 6
      vertex -20.5488 -1.10833 6
    endloop
  endfacet
  facet normal -0 0 1
    outer loop
      vertex -22.7842 0.95 6
      vertex -21.2343 -1.10833 6
      vertex -21.9835 0.95 6
    endloop
  endfacet
  facet normal 0 0 1
    outer loop
      vertex -23.5334 -1.10833 6
      vertex -21.2343 -1.10833 6
      vertex -22.7842 0.95 6
    endloop
  endfacet
  facet normal -0 0 1
    outer loop
      vertex -23.5334 -1.10833 6
      vertex -5.62629 -6 6
      vertex -21.2343 -1.10833 6
    endloop
  endfacet
  facet normal -0 0 1
    outer loop
      vertex -24.2188 -1.10833 6
      vertex -5.62629 -6 6
      vertex -23.5334 -1.10833 6
    endloop
  endfacet
  facet normal -0 0 1
    outer loop
      vertex -25.7687 0.95 6
      vertex -24.2188 -1.10833 6
      vertex -24.968 0.95 6
    endloop
  endfacet
  facet normal 0 0 1
    outer loop
      vertex -26.5179 -1.10833 6
      vertex -24.2188 -1.10833 6
      vertex -25.7687 0.95 6
    endloop
  endfacet
  facet normal -0 0 1
    outer loop
      vertex -26.5179 -1.10833 6
      vertex -5.62629 -6 6
      vertex -24.2188 -1.10833 6
    endloop
  endfacet
  facet normal 0 0 1
    outer loop
      vertex -44.4249 -6 6
      vertex -26.5179 -1.10833 6
      vertex -27.2033 -1.10833 6
    endloop
  endfacet
  facet normal -0 0 1
    outer loop
      vertex -28.7532 0.95 6
      vertex -27.2033 -1.10833 6
      vertex -27.9525 0.95 6
    endloop
  endfacet
  facet normal 0 0 1
    outer loop
      vertex -29.5024 -1.10833 6
      vertex -27.2033 -1.10833 6
      vertex -28.7532 0.95 6
    endloop
  endfacet
  facet normal 0 0 1
    outer loop
      vertex -44.4249 -6 6
      vertex -27.2033 -1.10833 6
      vertex -29.5024 -1.10833 6
    endloop
  endfacet
  facet normal 0 0 1
    outer loop
      vertex -44.4249 -6 6
      vertex -29.5024 -1.10833 6
      vertex -30.1878 -1.10833 6
    endloop
  endfacet
  facet normal -0 0 1
    outer loop
      vertex -31.7377 0.95 6
      vertex -30.1878 -1.10833 6
      vertex -30.937 0.95 6
    endloop
  endfacet
  facet normal 0 0 1
    outer loop
      vertex -32.4869 -1.10833 6
      vertex -30.1878 -1.10833 6
      vertex -31.7377 0.95 6
    endloop
  endfacet
  facet normal 0 0 1
    outer loop
      vertex -44.4249 -6 6
      vertex -30.1878 -1.10833 6
      vertex -32.4869 -1.10833 6
    endloop
  endfacet
  facet normal 0 0 1
    outer loop
      vertex -44.4249 -6 6
      vertex -32.4869 -1.10833 6
      vertex -33.1723 -1.10833 6
    endloop
  endfacet
  facet normal -0 0 1
    outer loop
      vertex -34.7222 0.95 6
      vertex -33.1723 -1.10833 6
      vertex -33.9215 0.95 6
    endloop
  endfacet
  facet normal 0 0 1
    outer loop
      vertex -35.4714 -1.10833 6
      vertex -33.1723 -1.10833 6
      vertex -34.7222 0.95 6
    endloop
  endfacet
  facet normal 0 0 1
    outer loop
      vertex -44.4249 -6 6
      vertex -33.1723 -1.10833 6
      vertex -35.4714 -1.10833 6
    endloop
  endfacet
  facet normal 0 0 1
    outer loop
      vertex -44.4249 -6 6
      vertex -35.4714 -1.10833 6
      vertex -36.1569 -1.10833 6
    endloop
  endfacet
  facet normal -0 0 1
    outer loop
      vertex -37.7067 0.95 6
      vertex -36.1569 -1.10833 6
      vertex -36.906 0.95 6
    endloop
  endfacet
  facet normal 0 0 1
    outer loop
      vertex -38.4559 -1.10833 6
      vertex -36.1569 -1.10833 6
      vertex -37.7067 0.95 6
    endloop
  endfacet
  facet normal 0 0 1
    outer loop
      vertex -44.4249 -6 6
      vertex -36.1569 -1.10833 6
      vertex -38.4559 -1.10833 6
    endloop
  endfacet
  facet normal 0 0 1
    outer loop
      vertex -44.4249 -6 6
      vertex -38.4559 -1.10833 6
      vertex -39.1414 -1.10833 6
    endloop
  endfacet
  facet normal -0 0 1
    outer loop
      vertex -40.6912 0.95 6
      vertex -39.1414 -1.10833 6
      vertex -39.8905 0.95 6
    endloop
  endfacet
  facet normal 0 0 1
    outer loop
      vertex -41.4404 -1.10833 6
      vertex -39.1414 -1.10833 6
      vertex -40.6912 0.95 6
    endloop
  endfacet
  facet normal 0 0 1
    outer loop
      vertex -44.4249 -6 6
      vertex -39.1414 -1.10833 6
      vertex -41.4404 -1.10833 6
    endloop
  endfacet
  facet normal 0 0 1
    outer loop
      vertex -44.4249 -6 6
      vertex -41.4404 -1.10833 6
      vertex -42.1259 -1.10833 6
    endloop
  endfacet
  facet normal -0 0 1
    outer loop
      vertex -43.6758 0.95 6
      vertex -42.1259 -1.10833 6
      vertex -42.875 0.95 6
    endloop
  endfacet
  facet normal 0 0 1
    outer loop
      vertex -44.4249 -1.10833 6
      vertex -42.1259 -1.10833 6
      vertex -43.6758 0.95 6
    endloop
  endfacet
  facet normal 0 0 1
    outer loop
      vertex -44.4249 -6 6
      vertex -42.1259 -1.10833 6
      vertex -44.4249 -1.10833 6
    endloop
  endfacet
  facet normal 0 0 1
    outer loop
      vertex -26.5179 -1.10833 6
      vertex -44.4249 -6 6
      vertex -5.62629 -6 6
    endloop
  endfacet
  facet normal -0.939688 0.342032 0
    outer loop
      vertex -41.4404 -1.10833 0
      vertex -40.6912 0.95 6
      vertex -40.6912 0.95 0
    endloop
  endfacet
  facet normal -0.939688 0.342032 0
    outer loop
      vertex -40.6912 0.95 6
      vertex -41.4404 -1.10833 0
      vertex -41.4404 -1.10833 6
    endloop
  endfacet
  facet normal 0 1 -0
    outer loop
      vertex -39.8905 0.95 0
      vertex -40.6912 0.95 6
      vertex -39.8905 0.95 6
    endloop
  endfacet
  facet normal 0 1 0
    outer loop
      vertex -40.6912 0.95 6
      vertex -39.8905 0.95 0
      vertex -40.6912 0.95 0
    endloop
  endfacet
  facet normal 0.939703 0.341992 0
    outer loop
      vertex -39.1414 -1.10833 6
      vertex -39.8905 0.95 0
      vertex -39.8905 0.95 6
    endloop
  endfacet
  facet normal 0.939703 0.341992 0
    outer loop
      vertex -39.8905 0.95 0
      vertex -39.1414 -1.10833 6
      vertex -39.1414 -1.10833 0
    endloop
  endfacet
  facet normal 0 1 -0
    outer loop
      vertex -38.4559 -1.10833 0
      vertex -39.1414 -1.10833 6
      vertex -38.4559 -1.10833 6
    endloop
  endfacet
  facet normal 0 1 0
    outer loop
      vertex -39.1414 -1.10833 6
      vertex -38.4559 -1.10833 0
      vertex -39.1414 -1.10833 0
    endloop
  endfacet
  facet normal -0.939688 0.342032 0
    outer loop
      vertex -38.4559 -1.10833 0
      vertex -37.7067 0.95 6
      vertex -37.7067 0.95 0
    endloop
  endfacet
  facet normal -0.939688 0.342032 0
    outer loop
      vertex -37.7067 0.95 6
      vertex -38.4559 -1.10833 0
      vertex -38.4559 -1.10833 6
    endloop
  endfacet
  facet normal 0 1 -0
    outer loop
      vertex -36.906 0.95 0
      vertex -37.7067 0.95 6
      vertex -36.906 0.95 6
    endloop
  endfacet
  facet normal 0 1 0
    outer loop
      vertex -37.7067 0.95 6
      vertex -36.906 0.95 0
      vertex -37.7067 0.95 0
    endloop
  endfacet
  facet normal 0.939703 0.341992 0
    outer loop
      vertex -36.1569 -1.10833 6
      vertex -36.906 0.95 0
      vertex -36.906 0.95 6
    endloop
  endfacet
  facet normal 0.939703 0.341992 0
    outer loop
      vertex -36.906 0.95 0
      vertex -36.1569 -1.10833 6
      vertex -36.1569 -1.10833 0
    endloop
  endfacet
  facet normal 0 1 -0
    outer loop
      vertex -35.4714 -1.10833 0
      vertex -36.1569 -1.10833 6
      vertex -35.4714 -1.10833 6
    endloop
  endfacet
  facet normal 0 1 0
    outer loop
      vertex -36.1569 -1.10833 6
      vertex -35.4714 -1.10833 0
      vertex -36.1569 -1.10833 0
    endloop
  endfacet
  facet normal -0.939688 0.342032 0
    outer loop
      vertex -35.4714 -1.10833 0
      vertex -34.7222 0.95 6
      vertex -34.7222 0.95 0
    endloop
  endfacet
  facet normal -0.939688 0.342032 0
    outer loop
      vertex -34.7222 0.95 6
      vertex -35.4714 -1.10833 0
      vertex -35.4714 -1.10833 6
    endloop
  endfacet
  facet normal 0 1 -0
    outer loop
      vertex -33.9215 0.95 0
      vertex -34.7222 0.95 6
      vertex -33.9215 0.95 6
    endloop
  endfacet
  facet normal 0 1 0
    outer loop
      vertex -34.7222 0.95 6
      vertex -33.9215 0.95 0
      vertex -34.7222 0.95 0
    endloop
  endfacet
  facet normal 0.939688 0.342032 0
    outer loop
      vertex -33.1723 -1.10833 6
      vertex -33.9215 0.95 0
      vertex -33.9215 0.95 6
    endloop
  endfacet
  facet normal 0.939688 0.342032 0
    outer loop
      vertex -33.9215 0.95 0
      vertex -33.1723 -1.10833 6
      vertex -33.1723 -1.10833 0
    endloop
  endfacet
  facet normal 0 1 -0
    outer loop
      vertex -32.4869 -1.10833 0
      vertex -33.1723 -1.10833 6
      vertex -32.4869 -1.10833 6
    endloop
  endfacet
  facet normal 0 1 0
    outer loop
      vertex -33.1723 -1.10833 6
      vertex -32.4869 -1.10833 0
      vertex -33.1723 -1.10833 0
    endloop
  endfacet
  facet normal -0.939688 0.342032 0
    outer loop
      vertex -32.4869 -1.10833 0
      vertex -31.7377 0.95 6
      vertex -31.7377 0.95 0
    endloop
  endfacet
  facet normal -0.939688 0.342032 0
    outer loop
      vertex -31.7377 0.95 6
      vertex -32.4869 -1.10833 0
      vertex -32.4869 -1.10833 6
    endloop
  endfacet
  facet normal 0 1 -0
    outer loop
      vertex -30.937 0.95 0
      vertex -31.7377 0.95 6
      vertex -30.937 0.95 6
    endloop
  endfacet
  facet normal 0 1 0
    outer loop
      vertex -31.7377 0.95 6
      vertex -30.937 0.95 0
      vertex -31.7377 0.95 0
    endloop
  endfacet
  facet normal 0.939688 0.342032 0
    outer loop
      vertex -30.1878 -1.10833 6
      vertex -30.937 0.95 0
      vertex -30.937 0.95 6
    endloop
  endfacet
  facet normal 0.939688 0.342032 0
    outer loop
      vertex -30.937 0.95 0
      vertex -30.1878 -1.10833 6
      vertex -30.1878 -1.10833 0
    endloop
  endfacet
  facet normal 0 1 -0
    outer loop
      vertex -29.5024 -1.10833 0
      vertex -30.1878 -1.10833 6
      vertex -29.5024 -1.10833 6
    endloop
  endfacet
  facet normal 0 1 0
    outer loop
      vertex -30.1878 -1.10833 6
      vertex -29.5024 -1.10833 0
      vertex -30.1878 -1.10833 0
    endloop
  endfacet
  facet normal -0.939688 0.342032 0
    outer loop
      vertex -29.5024 -1.10833 0
      vertex -28.7532 0.95 6
      vertex -28.7532 0.95 0
    endloop
  endfacet
  facet normal -0.939688 0.342032 0
    outer loop
      vertex -28.7532 0.95 6
      vertex -29.5024 -1.10833 0
      vertex -29.5024 -1.10833 6
    endloop
  endfacet
  facet normal 0 1 -0
    outer loop
      vertex -27.9525 0.95 0
      vertex -28.7532 0.95 6
      vertex -27.9525 0.95 6
    endloop
  endfacet
  facet normal 0 1 0
    outer loop
      vertex -28.7532 0.95 6
      vertex -27.9525 0.95 0
      vertex -28.7532 0.95 0
    endloop
  endfacet
  facet normal 0.939688 0.342032 0
    outer loop
      vertex -27.2033 -1.10833 6
      vertex -27.9525 0.95 0
      vertex -27.9525 0.95 6
    endloop
  endfacet
  facet normal 0.939688 0.342032 0
    outer loop
      vertex -27.9525 0.95 0
      vertex -27.2033 -1.10833 6
      vertex -27.2033 -1.10833 0
    endloop
  endfacet
  facet normal 0 1 -0
    outer loop
      vertex -26.5179 -1.10833 0
      vertex -27.2033 -1.10833 6
      vertex -26.5179 -1.10833 6
    endloop
  endfacet
  facet normal 0 1 0
    outer loop
      vertex -27.2033 -1.10833 6
      vertex -26.5179 -1.10833 0
      vertex -27.2033 -1.10833 0
    endloop
  endfacet
  facet normal -0.939688 0.342032 0
    outer loop
      vertex -26.5179 -1.10833 0
      vertex -25.7687 0.95 6
      vertex -25.7687 0.95 0
    endloop
  endfacet
  facet normal -0.939688 0.342032 0
    outer loop
      vertex -25.7687 0.95 6
      vertex -26.5179 -1.10833 0
      vertex -26.5179 -1.10833 6
    endloop
  endfacet
  facet normal 0 1 -0
    outer loop
      vertex -24.968 0.95 0
      vertex -25.7687 0.95 6
      vertex -24.968 0.95 6
    endloop
  endfacet
  facet normal 0 1 0
    outer loop
      vertex -25.7687 0.95 6
      vertex -24.968 0.95 0
      vertex -25.7687 0.95 0
    endloop
  endfacet
  facet normal 0.939688 0.342032 0
    outer loop
      vertex -24.2188 -1.10833 6
      vertex -24.968 0.95 0
      vertex -24.968 0.95 6
    endloop
  endfacet
  facet normal 0.939688 0.342032 0
    outer loop
      vertex -24.968 0.95 0
      vertex -24.2188 -1.10833 6
      vertex -24.2188 -1.10833 0
    endloop
  endfacet
  facet normal 0 1 -0
    outer loop
      vertex -23.5334 -1.10833 0
      vertex -24.2188 -1.10833 6
      vertex -23.5334 -1.10833 6
    endloop
  endfacet
  facet normal 0 1 0
    outer loop
      vertex -24.2188 -1.10833 6
      vertex -23.5334 -1.10833 0
      vertex -24.2188 -1.10833 0
    endloop
  endfacet
  facet normal -0.939688 0.342032 0
    outer loop
      vertex -23.5334 -1.10833 0
      vertex -22.7842 0.95 6
      vertex -22.7842 0.95 0
    endloop
  endfacet
  facet normal -0.939688 0.342032 0
    outer loop
      vertex -22.7842 0.95 6
      vertex -23.5334 -1.10833 0
      vertex -23.5334 -1.10833 6
    endloop
  endfacet
  facet normal 0 1 -0
    outer loop
      vertex -21.9835 0.95 0
      vertex -22.7842 0.95 6
      vertex -21.9835 0.95 6
    endloop
  endfacet
  facet normal 0 1 0
    outer loop
      vertex -22.7842 0.95 6
      vertex -21.9835 0.95 0
      vertex -22.7842 0.95 0
    endloop
  endfacet
  facet normal 0.939688 0.342032 0
    outer loop
      vertex -21.2343 -1.10833 6
      vertex -21.9835 0.95 0
      vertex -21.9835 0.95 6
    endloop
  endfacet
  facet normal 0.939688 0.342032 0
    outer loop
      vertex -21.9835 0.95 0
      vertex -21.2343 -1.10833 6
      vertex -21.2343 -1.10833 0
    endloop
  endfacet
  facet normal 0 1 -0
    outer loop
      vertex -20.5488 -1.10833 0
      vertex -21.2343 -1.10833 6
      vertex -20.5488 -1.10833 6
    endloop
  endfacet
  facet normal 0 1 0
    outer loop
      vertex -21.2343 -1.10833 6
      vertex -20.5488 -1.10833 0
      vertex -21.2343 -1.10833 0
    endloop
  endfacet
  facet normal -0.939703 0.341992 0
    outer loop
      vertex -20.5488 -1.10833 0
      vertex -19.7997 0.95 6
      vertex -19.7997 0.95 0
    endloop
  endfacet
  facet normal -0.939703 0.341992 0
    outer loop
      vertex -19.7997 0.95 6
      vertex -20.5488 -1.10833 0
      vertex -20.5488 -1.10833 6
    endloop
  endfacet
  facet normal 0 1 -0
    outer loop
      vertex -18.999 0.95 0
      vertex -19.7997 0.95 6
      vertex -18.999 0.95 6
    endloop
  endfacet
  facet normal 0 1 0
    outer loop
      vertex -19.7997 0.95 6
      vertex -18.999 0.95 0
      vertex -19.7997 0.95 0
    endloop
  endfacet
  facet normal 0.939688 0.342032 0
    outer loop
      vertex -18.2498 -1.10833 6
      vertex -18.999 0.95 0
      vertex -18.999 0.95 6
    endloop
  endfacet
  facet normal 0.939688 0.342032 0
    outer loop
      vertex -18.999 0.95 0
      vertex -18.2498 -1.10833 6
      vertex -18.2498 -1.10833 0
    endloop
  endfacet
  facet normal 0 1 -0
    outer loop
      vertex -17.5643 -1.10833 0
      vertex -18.2498 -1.10833 6
      vertex -17.5643 -1.10833 6
    endloop
  endfacet
  facet normal 0 1 0
    outer loop
      vertex -18.2498 -1.10833 6
      vertex -17.5643 -1.10833 0
      vertex -18.2498 -1.10833 0
    endloop
  endfacet
  facet normal -0.939703 0.341992 0
    outer loop
      vertex -17.5643 -1.10833 0
      vertex -16.8152 0.95 6
      vertex -16.8152 0.95 0
    endloop
  endfacet
  facet normal -0.939703 0.341992 0
    outer loop
      vertex -16.8152 0.95 6
      vertex -17.5643 -1.10833 0
      vertex -17.5643 -1.10833 6
    endloop
  endfacet
  facet normal 0 1 -0
    outer loop
      vertex -16.0145 0.95 0
      vertex -16.8152 0.95 6
      vertex -16.0145 0.95 6
    endloop
  endfacet
  facet normal 0 1 0
    outer loop
      vertex -16.8152 0.95 6
      vertex -16.0145 0.95 0
      vertex -16.8152 0.95 0
    endloop
  endfacet
  facet normal 0.939688 0.342032 0
    outer loop
      vertex -15.2653 -1.10833 6
      vertex -16.0145 0.95 0
      vertex -16.0145 0.95 6
    endloop
  endfacet
  facet normal 0.939688 0.342032 0
    outer loop
      vertex -16.0145 0.95 0
      vertex -15.2653 -1.10833 6
      vertex -15.2653 -1.10833 0
    endloop
  endfacet
  facet normal 0 1 -0
    outer loop
      vertex -14.5798 -1.10833 0
      vertex -15.2653 -1.10833 6
      vertex -14.5798 -1.10833 6
    endloop
  endfacet
  facet normal 0 1 0
    outer loop
      vertex -15.2653 -1.10833 6
      vertex -14.5798 -1.10833 0
      vertex -15.2653 -1.10833 0
    endloop
  endfacet
  facet normal -0.939703 0.341992 0
    outer loop
      vertex -14.5798 -1.10833 0
      vertex -13.8307 0.95 6
      vertex -13.8307 0.95 0
    endloop
  endfacet
  facet normal -0.939703 0.341992 0
    outer loop
      vertex -13.8307 0.95 6
      vertex -14.5798 -1.10833 0
      vertex -14.5798 -1.10833 6
    endloop
  endfacet
  facet normal 0 1 -0
    outer loop
      vertex -13.0299 0.95 0
      vertex -13.8307 0.95 6
      vertex -13.0299 0.95 6
    endloop
  endfacet
  facet normal 0 1 0
    outer loop
      vertex -13.8307 0.95 6
      vertex -13.0299 0.95 0
      vertex -13.8307 0.95 0
    endloop
  endfacet
  facet normal 0.939703 0.341992 0
    outer loop
      vertex -12.2808 -1.10833 6
      vertex -13.0299 0.95 0
      vertex -13.0299 0.95 6
    endloop
  endfacet
  facet normal 0.939703 0.341992 0
    outer loop
      vertex -13.0299 0.95 0
      vertex -12.2808 -1.10833 6
      vertex -12.2808 -1.10833 0
    endloop
  endfacet
  facet normal 0 1 -0
    outer loop
      vertex -11.5953 -1.10833 0
      vertex -12.2808 -1.10833 6
      vertex -11.5953 -1.10833 6
    endloop
  endfacet
  facet normal 0 1 0
    outer loop
      vertex -12.2808 -1.10833 6
      vertex -11.5953 -1.10833 0
      vertex -12.2808 -1.10833 0
    endloop
  endfacet
  facet normal -0.939688 0.342032 0
    outer loop
      vertex -11.5953 -1.10833 0
      vertex -10.8461 0.95 6
      vertex -10.8461 0.95 0
    endloop
  endfacet
  facet normal -0.939688 0.342032 0
    outer loop
      vertex -10.8461 0.95 6
      vertex -11.5953 -1.10833 0
      vertex -11.5953 -1.10833 6
    endloop
  endfacet
  facet normal 0 1 -0
    outer loop
      vertex -10.0454 0.95 0
      vertex -10.8461 0.95 6
      vertex -10.0454 0.95 6
    endloop
  endfacet
  facet normal 0 1 0
    outer loop
      vertex -10.8461 0.95 6
      vertex -10.0454 0.95 0
      vertex -10.8461 0.95 0
    endloop
  endfacet
  facet normal 0.939697 0.342008 0
    outer loop
      vertex -9.29626 -1.10833 6
      vertex -10.0454 0.95 0
      vertex -10.0454 0.95 6
    endloop
  endfacet
  facet normal 0.939697 0.342008 0
    outer loop
      vertex -10.0454 0.95 0
      vertex -9.29626 -1.10833 6
      vertex -9.29626 -1.10833 0
    endloop
  endfacet
  facet normal 0 1 -0
    outer loop
      vertex -8.61081 -1.10833 0
      vertex -9.29626 -1.10833 6
      vertex -8.61081 -1.10833 6
    endloop
  endfacet
  facet normal 0 1 0
    outer loop
      vertex -9.29626 -1.10833 6
      vertex -8.61081 -1.10833 0
      vertex -9.29626 -1.10833 0
    endloop
  endfacet
  facet normal -0.939691 0.342024 0
    outer loop
      vertex -8.61081 -1.10833 0
      vertex -7.86163 0.95 6
      vertex -7.86163 0.95 0
    endloop
  endfacet
  facet normal -0.939691 0.342024 0
    outer loop
      vertex -7.86163 0.95 6
      vertex -8.61081 -1.10833 0
      vertex -8.61081 -1.10833 6
    endloop
  endfacet
  facet normal 0 1 -0
    outer loop
      vertex -7.06092 0.95 0
      vertex -7.86163 0.95 6
      vertex -7.06092 0.95 6
    endloop
  endfacet
  facet normal 0 1 0
    outer loop
      vertex -7.86163 0.95 6
      vertex -7.06092 0.95 0
      vertex -7.86163 0.95 0
    endloop
  endfacet
  facet normal 0.939693 0.34202 0
    outer loop
      vertex -6.31175 -1.10833 6
      vertex -7.06092 0.95 0
      vertex -7.06092 0.95 6
    endloop
  endfacet
  facet normal 0.939693 0.34202 0
    outer loop
      vertex -7.06092 0.95 0
      vertex -6.31175 -1.10833 6
      vertex -6.31175 -1.10833 0
    endloop
  endfacet
  facet normal 0 1 -0
    outer loop
      vertex -5.62629 -1.10833 0
      vertex -6.31175 -1.10833 6
      vertex -5.62629 -1.10833 6
    endloop
  endfacet
  facet normal 0 1 0
    outer loop
      vertex -6.31175 -1.10833 6
      vertex -5.62629 -1.10833 0
      vertex -6.31175 -1.10833 0
    endloop
  endfacet
  facet normal 1 -0 0
    outer loop
      vertex -5.62629 -6 6
      vertex -5.62629 -1.10833 0
      vertex -5.62629 -1.10833 6
    endloop
  endfacet
  facet normal 1 0 0
    outer loop
      vertex -5.62629 -1.10833 0
      vertex -5.62629 -6 6
      vertex -5.62629 -6 0
    endloop
  endfacet
  facet normal 0 0 -1
    outer loop
      vertex 30.1878 -6 0
      vertex 29.5024 -1.10833 0
      vertex 30.1878 -1.10833 0
    endloop
  endfacet
  facet normal 0 0 -1
    outer loop
      vertex 27.2033 -1.10833 0
      vertex 29.5024 -1.10833 0
      vertex 30.1878 -6 0
    endloop
  endfacet
  facet normal 0 0 -1
    outer loop
      vertex 29.5024 -1.10833 0
      vertex 27.2033 -1.10833 0
      vertex 28.7532 0.95 0
    endloop
  endfacet
  facet normal -0 0 -1
    outer loop
      vertex 28.7532 0.95 0
      vertex 27.2033 -1.10833 0
      vertex 27.9525 0.95 0
    endloop
  endfacet
  facet normal 0 0 -1
    outer loop
      vertex 30.1878 -6 0
      vertex 26.5179 -1.10833 0
      vertex 27.2033 -1.10833 0
    endloop
  endfacet
  facet normal 0 0 -1
    outer loop
      vertex 26.5179 -1.10833 0
      vertex 24.968 0.95 0
      vertex 25.7687 0.95 0
    endloop
  endfacet
  facet normal 0 0 -1
    outer loop
      vertex 24.2188 -1.10833 0
      vertex 26.5179 -1.10833 0
      vertex 30.1878 -6 0
    endloop
  endfacet
  facet normal 0 0 -1
    outer loop
      vertex 26.5179 -1.10833 0
      vertex 24.2188 -1.10833 0
      vertex 24.968 0.95 0
    endloop
  endfacet
  facet normal 0 0 -1
    outer loop
      vertex 30.1878 -6 0
      vertex 23.5334 -1.10833 0
      vertex 24.2188 -1.10833 0
    endloop
  endfacet
  facet normal 0 0 -1
    outer loop
      vertex 23.5334 -1.10833 0
      vertex 21.9835 0.95 0
      vertex 22.7842 0.95 0
    endloop
  endfacet
  facet normal 0 0 -1
    outer loop
      vertex 23.5334 -1.10833 0
      vertex 21.2343 -1.10833 0
      vertex 21.9835 0.95 0
    endloop
  endfacet
  facet normal 0 0 -1
    outer loop
      vertex 30.1878 -6 0
      vertex 21.2343 -1.10833 0
      vertex 23.5334 -1.10833 0
    endloop
  endfacet
  facet normal 0 0 -1
    outer loop
      vertex 30.1878 -6 0
      vertex 20.5488 -1.10833 0
      vertex 21.2343 -1.10833 0
    endloop
  endfacet
  facet normal 0 0 -1
    outer loop
      vertex 20.5488 -1.10833 0
      vertex 18.999 0.95 0
      vertex 19.7997 0.95 0
    endloop
  endfacet
  facet normal 0 0 -1
    outer loop
      vertex 20.5488 -1.10833 0
      vertex 18.2498 -1.10833 0
      vertex 18.999 0.95 0
    endloop
  endfacet
  facet normal 0 0 -1
    outer loop
      vertex 30.1878 -6 0
      vertex 18.2498 -1.10833 0
      vertex 20.5488 -1.10833 0
    endloop
  endfacet
  facet normal 0 0 -1
    outer loop
      vertex 30.1878 -6 0
      vertex 17.5643 -1.10833 0
      vertex 18.2498 -1.10833 0
    endloop
  endfacet
  facet normal 0 0 -1
    outer loop
      vertex 17.5643 -1.10833 0
      vertex 16.0145 0.95 0
      vertex 16.8152 0.95 0
    endloop
  endfacet
  facet normal 0 0 -1
    outer loop
      vertex 17.5643 -1.10833 0
      vertex 15.2653 -1.10833 0
      vertex 16.0145 0.95 0
    endloop
  endfacet
  facet normal 0 0 -1
    outer loop
      vertex 30.1878 -6 0
      vertex 15.2653 -1.10833 0
      vertex 17.5643 -1.10833 0
    endloop
  endfacet
  facet normal 0 0 -1
    outer loop
      vertex 30.1878 -6 0
      vertex 14.5798 -1.10833 0
      vertex 15.2653 -1.10833 0
    endloop
  endfacet
  facet normal 0 0 -1
    outer loop
      vertex 14.5798 -1.10833 0
      vertex 13.0299 0.95 0
      vertex 13.8307 0.95 0
    endloop
  endfacet
  facet normal 0 0 -1
    outer loop
      vertex 14.5798 -1.10833 0
      vertex 12.2808 -1.10833 0
      vertex 13.0299 0.95 0
    endloop
  endfacet
  facet normal 0 0 -1
    outer loop
      vertex 30.1878 -6 0
      vertex 12.2808 -1.10833 0
      vertex 14.5798 -1.10833 0
    endloop
  endfacet
  facet normal 0 0 -1
    outer loop
      vertex -5.62629 -6 0
      vertex 12.2808 -1.10833 0
      vertex 30.1878 -6 0
    endloop
  endfacet
  facet normal 0 0 -1
    outer loop
      vertex 11.5953 -1.10833 0
      vertex 10.0454 0.95 0
      vertex 10.8461 0.95 0
    endloop
  endfacet
  facet normal 0 0 -1
    outer loop
      vertex 11.5953 -1.10833 0
      vertex 9.29626 -1.10833 0
      vertex 10.0454 0.95 0
    endloop
  endfacet
  facet normal -0 0 -1
    outer loop
      vertex 12.2808 -1.10833 0
      vertex -5.62629 -6 0
      vertex 11.5953 -1.10833 0
    endloop
  endfacet
  facet normal -0 0 -1
    outer loop
      vertex 11.5953 -1.10833 0
      vertex -5.62629 -6 0
      vertex 9.29626 -1.10833 0
    endloop
  endfacet
  facet normal 0 0 -1
    outer loop
      vertex 8.6108 -1.10833 0
      vertex 7.06092 0.95 0
      vertex 7.86163 0.95 0
    endloop
  endfacet
  facet normal 0 0 -1
    outer loop
      vertex 8.6108 -1.10833 0
      vertex 6.31175 -1.10833 0
      vertex 7.06092 0.95 0
    endloop
  endfacet
  facet normal -0 0 -1
    outer loop
      vertex 9.29626 -1.10833 0
      vertex -5.62629 -6 0
      vertex 8.6108 -1.10833 0
    endloop
  endfacet
  facet normal -0 0 -1
    outer loop
      vertex 8.6108 -1.10833 0
      vertex -5.62629 -6 0
      vertex 6.31175 -1.10833 0
    endloop
  endfacet
  facet normal 0 0 -1
    outer loop
      vertex 5.62629 -1.10833 0
      vertex 4.07641 0.95 0
      vertex 4.87712 0.95 0
    endloop
  endfacet
  facet normal 0 0 -1
    outer loop
      vertex 5.62629 -1.10833 0
      vertex 3.32724 -1.10833 0
      vertex 4.07641 0.95 0
    endloop
  endfacet
  facet normal -0 0 -1
    outer loop
      vertex 6.31175 -1.10833 0
      vertex -5.62629 -6 0
      vertex 5.62629 -1.10833 0
    endloop
  endfacet
  facet normal -0 0 -1
    outer loop
      vertex 5.62629 -1.10833 0
      vertex -5.62629 -6 0
      vertex 3.32724 -1.10833 0
    endloop
  endfacet
  facet normal 0 0 -1
    outer loop
      vertex 2.64178 -1.10833 0
      vertex 1.0919 0.95 0
      vertex 1.89261 0.95 0
    endloop
  endfacet
  facet normal 0 0 -1
    outer loop
      vertex 2.64178 -1.10833 0
      vertex 0.342727 -1.10833 0
      vertex 1.0919 0.95 0
    endloop
  endfacet
  facet normal -0 0 -1
    outer loop
      vertex 3.32724 -1.10833 0
      vertex -5.62629 -6 0
      vertex 2.64178 -1.10833 0
    endloop
  endfacet
  facet normal -0 0 -1
    outer loop
      vertex 2.64178 -1.10833 0
      vertex -5.62629 -6 0
      vertex 0.342727 -1.10833 0
    endloop
  endfacet
  facet normal 0 0 -1
    outer loop
      vertex -0.342727 -1.10833 0
      vertex -1.89261 0.95 0
      vertex -1.0919 0.95 0
    endloop
  endfacet
  facet normal 0 0 -1
    outer loop
      vertex -0.342727 -1.10833 0
      vertex -2.64178 -1.10833 0
      vertex -1.89261 0.95 0
    endloop
  endfacet
  facet normal -0 0 -1
    outer loop
      vertex 0.342727 -1.10833 0
      vertex -5.62629 -6 0
      vertex -0.342727 -1.10833 0
    endloop
  endfacet
  facet normal -0 0 -1
    outer loop
      vertex -0.342727 -1.10833 0
      vertex -5.62629 -6 0
      vertex -2.64178 -1.10833 0
    endloop
  endfacet
  facet normal 0 0 -1
    outer loop
      vertex -3.32724 -1.10833 0
      vertex -4.87712 0.95 0
      vertex -4.07641 0.95 0
    endloop
  endfacet
  facet normal -0 0 -1
    outer loop
      vertex -2.64178 -1.10833 0
      vertex -5.62629 -6 0
      vertex -3.32724 -1.10833 0
    endloop
  endfacet
  facet normal 0 0 -1
    outer loop
      vertex -5.62629 -1.10833 0
      vertex -3.32724 -1.10833 0
      vertex -5.62629 -6 0
    endloop
  endfacet
  facet normal 0 0 -1
    outer loop
      vertex -3.32724 -1.10833 0
      vertex -5.62629 -1.10833 0
      vertex -4.87712 0.95 0
    endloop
  endfacet
  facet normal -0.939693 0.34202 0
    outer loop
      vertex -5.62629 -1.10833 0
      vertex -4.87712 0.95 6
      vertex -4.87712 0.95 0
    endloop
  endfacet
  facet normal -0.939693 0.34202 0
    outer loop
      vertex -4.87712 0.95 6
      vertex -5.62629 -1.10833 0
      vertex -5.62629 -1.10833 6
    endloop
  endfacet
  facet normal 0 1 -0
    outer loop
      vertex -4.07641 0.95 0
      vertex -4.87712 0.95 6
      vertex -4.07641 0.95 6
    endloop
  endfacet
  facet normal 0 1 0
    outer loop
      vertex -4.87712 0.95 6
      vertex -4.07641 0.95 0
      vertex -4.87712 0.95 0
    endloop
  endfacet
  facet normal 0.939693 0.34202 0
    outer loop
      vertex -3.32724 -1.10833 6
      vertex -4.07641 0.95 0
      vertex -4.07641 0.95 6
    endloop
  endfacet
  facet normal 0.939693 0.34202 0
    outer loop
      vertex -4.07641 0.95 0
      vertex -3.32724 -1.10833 6
      vertex -3.32724 -1.10833 0
    endloop
  endfacet
  facet normal 0 1 -0
    outer loop
      vertex -2.64178 -1.10833 0
      vertex -3.32724 -1.10833 6
      vertex -2.64178 -1.10833 6
    endloop
  endfacet
  facet normal 0 1 0
    outer loop
      vertex -3.32724 -1.10833 6
      vertex -2.64178 -1.10833 0
      vertex -3.32724 -1.10833 0
    endloop
  endfacet
  facet normal 0 -1 0
    outer loop
      vertex -5.62629 -6 0
      vertex 30.1878 -6 6
      vertex -5.62629 -6 6
    endloop
  endfacet
  facet normal 0 -1 -0
    outer loop
      vertex 30.1878 -6 6
      vertex -5.62629 -6 0
      vertex 30.1878 -6 0
    endloop
  endfacet
  facet normal -1 0 0
    outer loop
      vertex -5.62629 -6 0
      vertex -5.62629 -1.10833 6
      vertex -5.62629 -1.10833 0
    endloop
  endfacet
  facet normal -1 -0 0
    outer loop
      vertex -5.62629 -1.10833 6
      vertex -5.62629 -6 0
      vertex -5.62629 -6 6
    endloop
  endfacet
  facet normal -0 0 1
    outer loop
      vertex 29.5024 -1.10833 6
      vertex 30.1878 -6 6
      vertex 30.1878 -1.10833 6
    endloop
  endfacet
  facet normal 0 0 1
    outer loop
      vertex 27.2033 -1.10833 6
      vertex 29.5024 -1.10833 6
      vertex 28.7532 0.95 6
    endloop
  endfacet
  facet normal 0 0 1
    outer loop
      vertex 27.2033 -1.10833 6
      vertex 28.7532 0.95 6
      vertex 27.9525 0.95 6
    endloop
  endfacet
  facet normal 0 0 1
    outer loop
      vertex 29.5024 -1.10833 6
      vertex 27.2033 -1.10833 6
      vertex 30.1878 -6 6
    endloop
  endfacet
  facet normal -0 0 1
    outer loop
      vertex 26.5179 -1.10833 6
      vertex 30.1878 -6 6
      vertex 27.2033 -1.10833 6
    endloop
  endfacet
  facet normal -0 0 1
    outer loop
      vertex 24.968 0.95 6
      vertex 26.5179 -1.10833 6
      vertex 25.7687 0.95 6
    endloop
  endfacet
  facet normal 0 0 1
    outer loop
      vertex 24.2188 -1.10833 6
      vertex 26.5179 -1.10833 6
      vertex 24.968 0.95 6
    endloop
  endfacet
  facet normal 0 0 1
    outer loop
      vertex 26.5179 -1.10833 6
      vertex 24.2188 -1.10833 6
      vertex 30.1878 -6 6
    endloop
  endfacet
  facet normal -0 0 1
    outer loop
      vertex 23.5334 -1.10833 6
      vertex 30.1878 -6 6
      vertex 24.2188 -1.10833 6
    endloop
  endfacet
  facet normal -0 0 1
    outer loop
      vertex 21.9835 0.95 6
      vertex 23.5334 -1.10833 6
      vertex 22.7842 0.95 6
    endloop
  endfacet
  facet normal 0 0 1
    outer loop
      vertex 21.2343 -1.10833 6
      vertex 23.5334 -1.10833 6
      vertex 21.9835 0.95 6
    endloop
  endfacet
  facet normal -0 0 1
    outer loop
      vertex 21.2343 -1.10833 6
      vertex 30.1878 -6 6
      vertex 23.5334 -1.10833 6
    endloop
  endfacet
  facet normal -0 0 1
    outer loop
      vertex 20.5488 -1.10833 6
      vertex 30.1878 -6 6
      vertex 21.2343 -1.10833 6
    endloop
  endfacet
  facet normal -0 0 1
    outer loop
      vertex 18.999 0.95 6
      vertex 20.5488 -1.10833 6
      vertex 19.7997 0.95 6
    endloop
  endfacet
  facet normal 0 0 1
    outer loop
      vertex 18.2498 -1.10833 6
      vertex 20.5488 -1.10833 6
      vertex 18.999 0.95 6
    endloop
  endfacet
  facet normal -0 0 1
    outer loop
      vertex 18.2498 -1.10833 6
      vertex 30.1878 -6 6
      vertex 20.5488 -1.10833 6
    endloop
  endfacet
  facet normal -0 0 1
    outer loop
      vertex 17.5643 -1.10833 6
      vertex 30.1878 -6 6
      vertex 18.2498 -1.10833 6
    endloop
  endfacet
  facet normal -0 0 1
    outer loop
      vertex 16.0145 0.95 6
      vertex 17.5643 -1.10833 6
      vertex 16.8152 0.95 6
    endloop
  endfacet
  facet normal 0 0 1
    outer loop
      vertex 15.2653 -1.10833 6
      vertex 17.5643 -1.10833 6
      vertex 16.0145 0.95 6
    endloop
  endfacet
  facet normal -0 0 1
    outer loop
      vertex 15.2653 -1.10833 6
      vertex 30.1878 -6 6
      vertex 17.5643 -1.10833 6
    endloop
  endfacet
  facet normal -0 0 1
    outer loop
      vertex 14.5798 -1.10833 6
      vertex 30.1878 -6 6
      vertex 15.2653 -1.10833 6
    endloop
  endfacet
  facet normal -0 0 1
    outer loop
      vertex 13.0299 0.95 6
      vertex 14.5798 -1.10833 6
      vertex 13.8307 0.95 6
    endloop
  endfacet
  facet normal 0 0 1
    outer loop
      vertex 12.2808 -1.10833 6
      vertex 14.5798 -1.10833 6
      vertex 13.0299 0.95 6
    endloop
  endfacet
  facet normal -0 0 1
    outer loop
      vertex 12.2808 -1.10833 6
      vertex 30.1878 -6 6
      vertex 14.5798 -1.10833 6
    endloop
  endfacet
  facet normal 0 0 1
    outer loop
      vertex -5.62629 -6 6
      vertex 12.2808 -1.10833 6
      vertex 11.5953 -1.10833 6
    endloop
  endfacet
  facet normal -0 0 1
    outer loop
      vertex 10.0454 0.95 6
      vertex 11.5953 -1.10833 6
      vertex 10.8461 0.95 6
    endloop
  endfacet
  facet normal 0 0 1
    outer loop
      vertex 9.29626 -1.10833 6
      vertex 11.5953 -1.10833 6
      vertex 10.0454 0.95 6
    endloop
  endfacet
  facet normal 0 0 1
    outer loop
      vertex -5.62629 -6 6
      vertex 11.5953 -1.10833 6
      vertex 9.29626 -1.10833 6
    endloop
  endfacet
  facet normal 0 0 1
    outer loop
      vertex -5.62629 -6 6
      vertex 9.29626 -1.10833 6
      vertex 8.6108 -1.10833 6
    endloop
  endfacet
  facet normal -0 0 1
    outer loop
      vertex 7.06092 0.95 6
      vertex 8.6108 -1.10833 6
      vertex 7.86163 0.95 6
    endloop
  endfacet
  facet normal 0 0 1
    outer loop
      vertex 6.31175 -1.10833 6
      vertex 8.6108 -1.10833 6
      vertex 7.06092 0.95 6
    endloop
  endfacet
  facet normal 0 0 1
    outer loop
      vertex -5.62629 -6 6
      vertex 8.6108 -1.10833 6
      vertex 6.31175 -1.10833 6
    endloop
  endfacet
  facet normal 0 0 1
    outer loop
      vertex -5.62629 -6 6
      vertex 6.31175 -1.10833 6
      vertex 5.62629 -1.10833 6
    endloop
  endfacet
  facet normal -0 0 1
    outer loop
      vertex 4.07641 0.95 6
      vertex 5.62629 -1.10833 6
      vertex 4.87712 0.95 6
    endloop
  endfacet
  facet normal 0 0 1
    outer loop
      vertex 3.32724 -1.10833 6
      vertex 5.62629 -1.10833 6
      vertex 4.07641 0.95 6
    endloop
  endfacet
  facet normal 0 0 1
    outer loop
      vertex -5.62629 -6 6
      vertex 5.62629 -1.10833 6
      vertex 3.32724 -1.10833 6
    endloop
  endfacet
  facet normal 0 0 1
    outer loop
      vertex -5.62629 -6 6
      vertex 3.32724 -1.10833 6
      vertex 2.64178 -1.10833 6
    endloop
  endfacet
  facet normal -0 0 1
    outer loop
      vertex 1.0919 0.95 6
      vertex 2.64178 -1.10833 6
      vertex 1.89261 0.95 6
    endloop
  endfacet
  facet normal 0 0 1
    outer loop
      vertex 0.342727 -1.10833 6
      vertex 2.64178 -1.10833 6
      vertex 1.0919 0.95 6
    endloop
  endfacet
  facet normal 0 0 1
    outer loop
      vertex -5.62629 -6 6
      vertex 2.64178 -1.10833 6
      vertex 0.342727 -1.10833 6
    endloop
  endfacet
  facet normal 0 0 1
    outer loop
      vertex -5.62629 -6 6
      vertex 0.342727 -1.10833 6
      vertex -0.342727 -1.10833 6
    endloop
  endfacet
  facet normal -0 0 1
    outer loop
      vertex -1.89261 0.95 6
      vertex -0.342727 -1.10833 6
      vertex -1.0919 0.95 6
    endloop
  endfacet
  facet normal 0 0 1
    outer loop
      vertex -2.64178 -1.10833 6
      vertex -0.342727 -1.10833 6
      vertex -1.89261 0.95 6
    endloop
  endfacet
  facet normal 0 0 1
    outer loop
      vertex -5.62629 -6 6
      vertex -0.342727 -1.10833 6
      vertex -2.64178 -1.10833 6
    endloop
  endfacet
  facet normal 0 0 1
    outer loop
      vertex -5.62629 -6 6
      vertex -2.64178 -1.10833 6
      vertex -3.32724 -1.10833 6
    endloop
  endfacet
  facet normal -0 0 1
    outer loop
      vertex -4.87712 0.95 6
      vertex -3.32724 -1.10833 6
      vertex -4.07641 0.95 6
    endloop
  endfacet
  facet normal 0 0 1
    outer loop
      vertex -5.62629 -1.10833 6
      vertex -3.32724 -1.10833 6
      vertex -4.87712 0.95 6
    endloop
  endfacet
  facet normal 0 0 1
    outer loop
      vertex -5.62629 -6 6
      vertex -3.32724 -1.10833 6
      vertex -5.62629 -1.10833 6
    endloop
  endfacet
  facet normal 0 0 1
    outer loop
      vertex 12.2808 -1.10833 6
      vertex -5.62629 -6 6
      vertex 30.1878 -6 6
    endloop
  endfacet
  facet normal -0.939693 0.34202 0
    outer loop
      vertex -2.64178 -1.10833 0
      vertex -1.89261 0.95 6
      vertex -1.89261 0.95 0
    endloop
  endfacet
  facet normal -0.939693 0.34202 0
    outer loop
      vertex -1.89261 0.95 6
      vertex -2.64178 -1.10833 0
      vertex -2.64178 -1.10833 6
    endloop
  endfacet
  facet normal 0 1 -0
    outer loop
      vertex -1.0919 0.95 0
      vertex -1.89261 0.95 6
      vertex -1.0919 0.95 6
    endloop
  endfacet
  facet normal 0 1 0
    outer loop
      vertex -1.89261 0.95 6
      vertex -1.0919 0.95 0
      vertex -1.89261 0.95 0
    endloop
  endfacet
  facet normal 0.939692 0.342021 0
    outer loop
      vertex -0.342727 -1.10833 6
      vertex -1.0919 0.95 0
      vertex -1.0919 0.95 6
    endloop
  endfacet
  facet normal 0.939692 0.342021 0
    outer loop
      vertex -1.0919 0.95 0
      vertex -0.342727 -1.10833 6
      vertex -0.342727 -1.10833 0
    endloop
  endfacet
  facet normal 0 1 -0
    outer loop
      vertex 0.342727 -1.10833 0
      vertex -0.342727 -1.10833 6
      vertex 0.342727 -1.10833 6
    endloop
  endfacet
  facet normal 0 1 0
    outer loop
      vertex -0.342727 -1.10833 6
      vertex 0.342727 -1.10833 0
      vertex -0.342727 -1.10833 0
    endloop
  endfacet
  facet normal -0.939692 0.342021 0
    outer loop
      vertex 0.342727 -1.10833 0
      vertex 1.0919 0.95 6
      vertex 1.0919 0.95 0
    endloop
  endfacet
  facet normal -0.939692 0.342021 0
    outer loop
      vertex 1.0919 0.95 6
      vertex 0.342727 -1.10833 0
      vertex 0.342727 -1.10833 6
    endloop
  endfacet
  facet normal 0 1 -0
    outer loop
      vertex 1.89261 0.95 0
      vertex 1.0919 0.95 6
      vertex 1.89261 0.95 6
    endloop
  endfacet
  facet normal 0 1 0
    outer loop
      vertex 1.0919 0.95 6
      vertex 1.89261 0.95 0
      vertex 1.0919 0.95 0
    endloop
  endfacet
  facet normal 0.939693 0.34202 0
    outer loop
      vertex 2.64178 -1.10833 6
      vertex 1.89261 0.95 0
      vertex 1.89261 0.95 6
    endloop
  endfacet
  facet normal 0.939693 0.34202 0
    outer loop
      vertex 1.89261 0.95 0
      vertex 2.64178 -1.10833 6
      vertex 2.64178 -1.10833 0
    endloop
  endfacet
  facet normal 0 1 -0
    outer loop
      vertex 3.32724 -1.10833 0
      vertex 2.64178 -1.10833 6
      vertex 3.32724 -1.10833 6
    endloop
  endfacet
  facet normal 0 1 0
    outer loop
      vertex 2.64178 -1.10833 6
      vertex 3.32724 -1.10833 0
      vertex 2.64178 -1.10833 0
    endloop
  endfacet
  facet normal -0.939693 0.34202 0
    outer loop
      vertex 3.32724 -1.10833 0
      vertex 4.07641 0.95 6
      vertex 4.07641 0.95 0
    endloop
  endfacet
  facet normal -0.939693 0.34202 0
    outer loop
      vertex 4.07641 0.95 6
      vertex 3.32724 -1.10833 0
      vertex 3.32724 -1.10833 6
    endloop
  endfacet
  facet normal 0 1 -0
    outer loop
      vertex 4.87712 0.95 0
      vertex 4.07641 0.95 6
      vertex 4.87712 0.95 6
    endloop
  endfacet
  facet normal 0 1 0
    outer loop
      vertex 4.07641 0.95 6
      vertex 4.87712 0.95 0
      vertex 4.07641 0.95 0
    endloop
  endfacet
  facet normal 0.939693 0.34202 0
    outer loop
      vertex 5.62629 -1.10833 6
      vertex 4.87712 0.95 0
      vertex 4.87712 0.95 6
    endloop
  endfacet
  facet normal 0.939693 0.34202 0
    outer loop
      vertex 4.87712 0.95 0
      vertex 5.62629 -1.10833 6
      vertex 5.62629 -1.10833 0
    endloop
  endfacet
  facet normal 0 1 -0
    outer loop
      vertex 6.31175 -1.10833 0
      vertex 5.62629 -1.10833 6
      vertex 6.31175 -1.10833 6
    endloop
  endfacet
  facet normal 0 1 0
    outer loop
      vertex 5.62629 -1.10833 6
      vertex 6.31175 -1.10833 0
      vertex 5.62629 -1.10833 0
    endloop
  endfacet
  facet normal -0.939693 0.34202 0
    outer loop
      vertex 6.31175 -1.10833 0
      vertex 7.06092 0.95 6
      vertex 7.06092 0.95 0
    endloop
  endfacet
  facet normal -0.939693 0.34202 0
    outer loop
      vertex 7.06092 0.95 6
      vertex 6.31175 -1.10833 0
      vertex 6.31175 -1.10833 6
    endloop
  endfacet
  facet normal 0 1 -0
    outer loop
      vertex 7.86163 0.95 0
      vertex 7.06092 0.95 6
      vertex 7.86163 0.95 6
    endloop
  endfacet
  facet normal 0 1 0
    outer loop
      vertex 7.06092 0.95 6
      vertex 7.86163 0.95 0
      vertex 7.06092 0.95 0
    endloop
  endfacet
  facet normal 0.939693 0.34202 0
    outer loop
      vertex 8.6108 -1.10833 6
      vertex 7.86163 0.95 0
      vertex 7.86163 0.95 6
    endloop
  endfacet
  facet normal 0.939693 0.34202 0
    outer loop
      vertex 7.86163 0.95 0
      vertex 8.6108 -1.10833 6
      vertex 8.6108 -1.10833 0
    endloop
  endfacet
  facet normal 0 1 -0
    outer loop
      vertex 9.29626 -1.10833 0
      vertex 8.6108 -1.10833 6
      vertex 9.29626 -1.10833 6
    endloop
  endfacet
  facet normal 0 1 0
    outer loop
      vertex 8.6108 -1.10833 6
      vertex 9.29626 -1.10833 0
      vertex 8.6108 -1.10833 0
    endloop
  endfacet
  facet normal -0.939697 0.342008 0
    outer loop
      vertex 9.29626 -1.10833 0
      vertex 10.0454 0.95 6
      vertex 10.0454 0.95 0
    endloop
  endfacet
  facet normal -0.939697 0.342008 0
    outer loop
      vertex 10.0454 0.95 6
      vertex 9.29626 -1.10833 0
      vertex 9.29626 -1.10833 6
    endloop
  endfacet
  facet normal 0 1 -0
    outer loop
      vertex 10.8461 0.95 0
      vertex 10.0454 0.95 6
      vertex 10.8461 0.95 6
    endloop
  endfacet
  facet normal 0 1 0
    outer loop
      vertex 10.0454 0.95 6
      vertex 10.8461 0.95 0
      vertex 10.0454 0.95 0
    endloop
  endfacet
  facet normal 0.939688 0.342032 0
    outer loop
      vertex 11.5953 -1.10833 6
      vertex 10.8461 0.95 0
      vertex 10.8461 0.95 6
    endloop
  endfacet
  facet normal 0.939688 0.342032 0
    outer loop
      vertex 10.8461 0.95 0
      vertex 11.5953 -1.10833 6
      vertex 11.5953 -1.10833 0
    endloop
  endfacet
  facet normal 0 1 -0
    outer loop
      vertex 12.2808 -1.10833 0
      vertex 11.5953 -1.10833 6
      vertex 12.2808 -1.10833 6
    endloop
  endfacet
  facet normal 0 1 0
    outer loop
      vertex 11.5953 -1.10833 6
      vertex 12.2808 -1.10833 0
      vertex 11.5953 -1.10833 0
    endloop
  endfacet
  facet normal -0.939703 0.341992 0
    outer loop
      vertex 12.2808 -1.10833 0
      vertex 13.0299 0.95 6
      vertex 13.0299 0.95 0
    endloop
  endfacet
  facet normal -0.939703 0.341992 0
    outer loop
      vertex 13.0299 0.95 6
      vertex 12.2808 -1.10833 0
      vertex 12.2808 -1.10833 6
    endloop
  endfacet
  facet normal 0 1 -0
    outer loop
      vertex 13.8307 0.95 0
      vertex 13.0299 0.95 6
      vertex 13.8307 0.95 6
    endloop
  endfacet
  facet normal 0 1 0
    outer loop
      vertex 13.0299 0.95 6
      vertex 13.8307 0.95 0
      vertex 13.0299 0.95 0
    endloop
  endfacet
  facet normal 0.939703 0.341992 0
    outer loop
      vertex 14.5798 -1.10833 6
      vertex 13.8307 0.95 0
      vertex 13.8307 0.95 6
    endloop
  endfacet
  facet normal 0.939703 0.341992 0
    outer loop
      vertex 13.8307 0.95 0
      vertex 14.5798 -1.10833 6
      vertex 14.5798 -1.10833 0
    endloop
  endfacet
  facet normal 0 1 -0
    outer loop
      vertex 15.2653 -1.10833 0
      vertex 14.5798 -1.10833 6
      vertex 15.2653 -1.10833 6
    endloop
  endfacet
  facet normal 0 1 0
    outer loop
      vertex 14.5798 -1.10833 6
      vertex 15.2653 -1.10833 0
      vertex 14.5798 -1.10833 0
    endloop
  endfacet
  facet normal -0.939688 0.342032 0
    outer loop
      vertex 15.2653 -1.10833 0
      vertex 16.0145 0.95 6
      vertex 16.0145 0.95 0
    endloop
  endfacet
  facet normal -0.939688 0.342032 0
    outer loop
      vertex 16.0145 0.95 6
      vertex 15.2653 -1.10833 0
      vertex 15.2653 -1.10833 6
    endloop
  endfacet
  facet normal 0 1 -0
    outer loop
      vertex 16.8152 0.95 0
      vertex 16.0145 0.95 6
      vertex 16.8152 0.95 6
    endloop
  endfacet
  facet normal 0 1 0
    outer loop
      vertex 16.0145 0.95 6
      vertex 16.8152 0.95 0
      vertex 16.0145 0.95 0
    endloop
  endfacet
  facet normal 0.939703 0.341992 0
    outer loop
      vertex 17.5643 -1.10833 6
      vertex 16.8152 0.95 0
      vertex 16.8152 0.95 6
    endloop
  endfacet
  facet normal 0.939703 0.341992 0
    outer loop
      vertex 16.8152 0.95 0
      vertex 17.5643 -1.10833 6
      vertex 17.5643 -1.10833 0
    endloop
  endfacet
  facet normal 0 1 -0
    outer loop
      vertex 18.2498 -1.10833 0
      vertex 17.5643 -1.10833 6
      vertex 18.2498 -1.10833 6
    endloop
  endfacet
  facet normal 0 1 0
    outer loop
      vertex 17.5643 -1.10833 6
      vertex 18.2498 -1.10833 0
      vertex 17.5643 -1.10833 0
    endloop
  endfacet
  facet normal -0.939688 0.342032 0
    outer loop
      vertex 18.2498 -1.10833 0
      vertex 18.999 0.95 6
      vertex 18.999 0.95 0
    endloop
  endfacet
  facet normal -0.939688 0.342032 0
    outer loop
      vertex 18.999 0.95 6
      vertex 18.2498 -1.10833 0
      vertex 18.2498 -1.10833 6
    endloop
  endfacet
  facet normal 0 1 -0
    outer loop
      vertex 19.7997 0.95 0
      vertex 18.999 0.95 6
      vertex 19.7997 0.95 6
    endloop
  endfacet
  facet normal 0 1 0
    outer loop
      vertex 18.999 0.95 6
      vertex 19.7997 0.95 0
      vertex 18.999 0.95 0
    endloop
  endfacet
  facet normal 0.939703 0.341992 0
    outer loop
      vertex 20.5488 -1.10833 6
      vertex 19.7997 0.95 0
      vertex 19.7997 0.95 6
    endloop
  endfacet
  facet normal 0.939703 0.341992 0
    outer loop
      vertex 19.7997 0.95 0
      vertex 20.5488 -1.10833 6
      vertex 20.5488 -1.10833 0
    endloop
  endfacet
  facet normal 0 1 -0
    outer loop
      vertex 21.2343 -1.10833 0
      vertex 20.5488 -1.10833 6
      vertex 21.2343 -1.10833 6
    endloop
  endfacet
  facet normal 0 1 0
    outer loop
      vertex 20.5488 -1.10833 6
      vertex 21.2343 -1.10833 0
      vertex 20.5488 -1.10833 0
    endloop
  endfacet
  facet normal -0.939688 0.342032 0
    outer loop
      vertex 21.2343 -1.10833 0
      vertex 21.9835 0.95 6
      vertex 21.9835 0.95 0
    endloop
  endfacet
  facet normal -0.939688 0.342032 0
    outer loop
      vertex 21.9835 0.95 6
      vertex 21.2343 -1.10833 0
      vertex 21.2343 -1.10833 6
    endloop
  endfacet
  facet normal 0 1 -0
    outer loop
      vertex 22.7842 0.95 0
      vertex 21.9835 0.95 6
      vertex 22.7842 0.95 6
    endloop
  endfacet
  facet normal 0 1 0
    outer loop
      vertex 21.9835 0.95 6
      vertex 22.7842 0.95 0
      vertex 21.9835 0.95 0
    endloop
  endfacet
  facet normal 0.939688 0.342032 0
    outer loop
      vertex 23.5334 -1.10833 6
      vertex 22.7842 0.95 0
      vertex 22.7842 0.95 6
    endloop
  endfacet
  facet normal 0.939688 0.342032 0
    outer loop
      vertex 22.7842 0.95 0
      vertex 23.5334 -1.10833 6
      vertex 23.5334 -1.10833 0
    endloop
  endfacet
  facet normal 0 1 -0
    outer loop
      vertex 24.2188 -1.10833 0
      vertex 23.5334 -1.10833 6
      vertex 24.2188 -1.10833 6
    endloop
  endfacet
  facet normal 0 1 0
    outer loop
      vertex 23.5334 -1.10833 6
      vertex 24.2188 -1.10833 0
      vertex 23.5334 -1.10833 0
    endloop
  endfacet
  facet normal -0.939688 0.342032 0
    outer loop
      vertex 24.2188 -1.10833 0
      vertex 24.968 0.95 6
      vertex 24.968 0.95 0
    endloop
  endfacet
  facet normal -0.939688 0.342032 0
    outer loop
      vertex 24.968 0.95 6
      vertex 24.2188 -1.10833 0
      vertex 24.2188 -1.10833 6
    endloop
  endfacet
  facet normal 0 1 -0
    outer loop
      vertex 25.7687 0.95 0
      vertex 24.968 0.95 6
      vertex 25.7687 0.95 6
    endloop
  endfacet
  facet normal 0 1 0
    outer loop
      vertex 24.968 0.95 6
      vertex 25.7687 0.95 0
      vertex 24.968 0.95 0
    endloop
  endfacet
  facet normal 0.939688 0.342032 0
    outer loop
      vertex 26.5179 -1.10833 6
      vertex 25.7687 0.95 0
      vertex 25.7687 0.95 6
    endloop
  endfacet
  facet normal 0.939688 0.342032 0
    outer loop
      vertex 25.7687 0.95 0
      vertex 26.5179 -1.10833 6
      vertex 26.5179 -1.10833 0
    endloop
  endfacet
  facet normal 0 1 -0
    outer loop
      vertex 27.2033 -1.10833 0
      vertex 26.5179 -1.10833 6
      vertex 27.2033 -1.10833 6
    endloop
  endfacet
  facet normal 0 1 0
    outer loop
      vertex 26.5179 -1.10833 6
      vertex 27.2033 -1.10833 0
      vertex 26.5179 -1.10833 0
    endloop
  endfacet
  facet normal -0.939688 0.342032 0
    outer loop
      vertex 27.2033 -1.10833 0
      vertex 27.9525 0.95 6
      vertex 27.9525 0.95 0
    endloop
  endfacet
  facet normal -0.939688 0.342032 0
    outer loop
      vertex 27.9525 0.95 6
      vertex 27.2033 -1.10833 0
      vertex 27.2033 -1.10833 6
    endloop
  endfacet
  facet normal 0 1 -0
    outer loop
      vertex 28.7532 0.95 0
      vertex 27.9525 0.95 6
      vertex 28.7532 0.95 6
    endloop
  endfacet
  facet normal 0 1 0
    outer loop
      vertex 27.9525 0.95 6
      vertex 28.7532 0.95 0
      vertex 27.9525 0.95 0
    endloop
  endfacet
  facet normal 0.939688 0.342032 0
    outer loop
      vertex 29.5024 -1.10833 6
      vertex 28.7532 0.95 0
      vertex 28.7532 0.95 6
    endloop
  endfacet
  facet normal 0.939688 0.342032 0
    outer loop
      vertex 28.7532 0.95 0
      vertex 29.5024 -1.10833 6
      vertex 29.5024 -1.10833 0
    endloop
  endfacet
  facet normal 0 1 -0
    outer loop
      vertex 30.1878 -1.10833 0
      vertex 29.5024 -1.10833 6
      vertex 30.1878 -1.10833 6
    endloop
  endfacet
  facet normal 0 1 0
    outer loop
      vertex 29.5024 -1.10833 6
      vertex 30.1878 -1.10833 0
      vertex 29.5024 -1.10833 0
    endloop
  endfacet
  facet normal 1 -0 0
    outer loop
      vertex 30.1878 -6 6
      vertex 30.1878 -1.10833 0
      vertex 30.1878 -1.10833 6
    endloop
  endfacet
  facet normal 1 0 0
    outer loop
      vertex 30.1878 -1.10833 0
      vertex 30.1878 -6 6
      vertex 30.1878 -6 0
    endloop
  endfacet
  facet normal 0 0 -1
    outer loop
      vertex 44.5751 -6 0
      vertex 44.4249 -1.10833 0
      vertex 44.5751 -1.10833 0
    endloop
  endfacet
  facet normal 0 0 -1
    outer loop
      vertex 42.1259 -1.10833 0
      vertex 44.4249 -1.10833 0
      vertex 44.5751 -6 0
    endloop
  endfacet
  facet normal 0 0 -1
    outer loop
      vertex 44.4249 -1.10833 0
      vertex 42.1259 -1.10833 0
      vertex 43.6758 0.95 0
    endloop
  endfacet
  facet normal -0 0 -1
    outer loop
      vertex 43.6758 0.95 0
      vertex 42.1259 -1.10833 0
      vertex 42.875 0.95 0
    endloop
  endfacet
  facet normal 0 0 -1
    outer loop
      vertex 44.5751 -6 0
      vertex 41.4404 -1.10833 0
      vertex 42.1259 -1.10833 0
    endloop
  endfacet
  facet normal 0 0 -1
    outer loop
      vertex 41.4404 -1.10833 0
      vertex 39.8905 0.95 0
      vertex 40.6912 0.95 0
    endloop
  endfacet
  facet normal 0 0 -1
    outer loop
      vertex 39.1414 -1.10833 0
      vertex 41.4404 -1.10833 0
      vertex 44.5751 -6 0
    endloop
  endfacet
  facet normal 0 0 -1
    outer loop
      vertex 41.4404 -1.10833 0
      vertex 39.1414 -1.10833 0
      vertex 39.8905 0.95 0
    endloop
  endfacet
  facet normal 0 0 -1
    outer loop
      vertex 44.5751 -6 0
      vertex 38.4559 -1.10833 0
      vertex 39.1414 -1.10833 0
    endloop
  endfacet
  facet normal 0 0 -1
    outer loop
      vertex 38.4559 -1.10833 0
      vertex 36.906 0.95 0
      vertex 37.7067 0.95 0
    endloop
  endfacet
  facet normal 0 0 -1
    outer loop
      vertex 38.4559 -1.10833 0
      vertex 36.1569 -1.10833 0
      vertex 36.906 0.95 0
    endloop
  endfacet
  facet normal 0 0 -1
    outer loop
      vertex 30.1878 -6 0
      vertex 38.4559 -1.10833 0
      vertex 44.5751 -6 0
    endloop
  endfacet
  facet normal -0 0 -1
    outer loop
      vertex 38.4559 -1.10833 0
      vertex 30.1878 -6 0
      vertex 36.1569 -1.10833 0
    endloop
  endfacet
  facet normal 0 0 -1
    outer loop
      vertex 35.4714 -1.10833 0
      vertex 33.9215 0.95 0
      vertex 34.7222 0.95 0
    endloop
  endfacet
  facet normal 0 0 -1
    outer loop
      vertex 35.4714 -1.10833 0
      vertex 33.1723 -1.10833 0
      vertex 33.9215 0.95 0
    endloop
  endfacet
  facet normal -0 0 -1
    outer loop
      vertex 36.1569 -1.10833 0
      vertex 30.1878 -6 0
      vertex 35.4714 -1.10833 0
    endloop
  endfacet
  facet normal -0 0 -1
    outer loop
      vertex 35.4714 -1.10833 0
      vertex 30.1878 -6 0
      vertex 33.1723 -1.10833 0
    endloop
  endfacet
  facet normal 0 0 -1
    outer loop
      vertex 32.4869 -1.10833 0
      vertex 30.937 0.95 0
      vertex 31.7377 0.95 0
    endloop
  endfacet
  facet normal -0 0 -1
    outer loop
      vertex 33.1723 -1.10833 0
      vertex 30.1878 -6 0
      vertex 32.4869 -1.10833 0
    endloop
  endfacet
  facet normal 0 0 -1
    outer loop
      vertex 30.1878 -1.10833 0
      vertex 32.4869 -1.10833 0
      vertex 30.1878 -6 0
    endloop
  endfacet
  facet normal 0 0 -1
    outer loop
      vertex 32.4869 -1.10833 0
      vertex 30.1878 -1.10833 0
      vertex 30.937 0.95 0
    endloop
  endfacet
  facet normal -0.939688 0.342032 0
    outer loop
      vertex 30.1878 -1.10833 0
      vertex 30.937 0.95 6
      vertex 30.937 0.95 0
    endloop
  endfacet
  facet normal -0.939688 0.342032 0
    outer loop
      vertex 30.937 0.95 6
      vertex 30.1878 -1.10833 0
      vertex 30.1878 -1.10833 6
    endloop
  endfacet
  facet normal 0 1 -0
    outer loop
      vertex 31.7377 0.95 0
      vertex 30.937 0.95 6
      vertex 31.7377 0.95 6
    endloop
  endfacet
  facet normal 0 1 0
    outer loop
      vertex 30.937 0.95 6
      vertex 31.7377 0.95 0
      vertex 30.937 0.95 0
    endloop
  endfacet
  facet normal 0.939688 0.342032 0
    outer loop
      vertex 32.4869 -1.10833 6
      vertex 31.7377 0.95 0
      vertex 31.7377 0.95 6
    endloop
  endfacet
  facet normal 0.939688 0.342032 0
    outer loop
      vertex 31.7377 0.95 0
      vertex 32.4869 -1.10833 6
      vertex 32.4869 -1.10833 0
    endloop
  endfacet
  facet normal 0 1 -0
    outer loop
      vertex 33.1723 -1.10833 0
      vertex 32.4869 -1.10833 6
      vertex 33.1723 -1.10833 6
    endloop
  endfacet
  facet normal 0 1 0
    outer loop
      vertex 32.4869 -1.10833 6
      vertex 33.1723 -1.10833 0
      vertex 32.4869 -1.10833 0
    endloop
  endfacet
  facet normal 0 -1 0
    outer loop
      vertex 30.1878 -6 0
      vertex 44.5751 -6 6
      vertex 30.1878 -6 6
    endloop
  endfacet
  facet normal 0 -1 -0
    outer loop
      vertex 44.5751 -6 6
      vertex 30.1878 -6 0
      vertex 44.5751 -6 0
    endloop
  endfacet
  facet normal -1 0 0
    outer loop
      vertex 30.1878 -6 0
      vertex 30.1878 -1.10833 6
      vertex 30.1878 -1.10833 0
    endloop
  endfacet
  facet normal -1 -0 0
    outer loop
      vertex 30.1878 -1.10833 6
      vertex 30.1878 -6 0
      vertex 30.1878 -6 6
    endloop
  endfacet
  facet normal -0 0 1
    outer loop
      vertex 44.4249 -1.10833 6
      vertex 44.5751 -6 6
      vertex 44.5751 -1.10833 6
    endloop
  endfacet
  facet normal 0 0 1
    outer loop
      vertex 42.1259 -1.10833 6
      vertex 44.4249 -1.10833 6
      vertex 43.6758 0.95 6
    endloop
  endfacet
  facet normal 0 0 1
    outer loop
      vertex 42.1259 -1.10833 6
      vertex 43.6758 0.95 6
      vertex 42.875 0.95 6
    endloop
  endfacet
  facet normal 0 0 1
    outer loop
      vertex 44.4249 -1.10833 6
      vertex 42.1259 -1.10833 6
      vertex 44.5751 -6 6
    endloop
  endfacet
  facet normal -0 0 1
    outer loop
      vertex 41.4404 -1.10833 6
      vertex 44.5751 -6 6
      vertex 42.1259 -1.10833 6
    endloop
  endfacet
  facet normal -0 0 1
    outer loop
      vertex 39.8905 0.95 6
      vertex 41.4404 -1.10833 6
      vertex 40.6912 0.95 6
    endloop
  endfacet
  facet normal 0 0 1
    outer loop
      vertex 39.1414 -1.10833 6
      vertex 41.4404 -1.10833 6
      vertex 39.8905 0.95 6
    endloop
  endfacet
  facet normal 0 0 1
    outer loop
      vertex 41.4404 -1.10833 6
      vertex 39.1414 -1.10833 6
      vertex 44.5751 -6 6
    endloop
  endfacet
  facet normal -0 0 1
    outer loop
      vertex 38.4559 -1.10833 6
      vertex 44.5751 -6 6
      vertex 39.1414 -1.10833 6
    endloop
  endfacet
  facet normal -0 0 1
    outer loop
      vertex 36.906 0.95 6
      vertex 38.4559 -1.10833 6
      vertex 37.7067 0.95 6
    endloop
  endfacet
  facet normal 0 0 1
    outer loop
      vertex 36.1569 -1.10833 6
      vertex 38.4559 -1.10833 6
      vertex 36.906 0.95 6
    endloop
  endfacet
  facet normal 0 0 1
    outer loop
      vertex 30.1878 -6 6
      vertex 38.4559 -1.10833 6
      vertex 36.1569 -1.10833 6
    endloop
  endfacet
  facet normal 0 0 1
    outer loop
      vertex 30.1878 -6 6
      vertex 36.1569 -1.10833 6
      vertex 35.4714 -1.10833 6
    endloop
  endfacet
  facet normal -0 0 1
    outer loop
      vertex 33.9215 0.95 6
      vertex 35.4714 -1.10833 6
      vertex 34.7222 0.95 6
    endloop
  endfacet
  facet normal 0 0 1
    outer loop
      vertex 33.1723 -1.10833 6
      vertex 35.4714 -1.10833 6
      vertex 33.9215 0.95 6
    endloop
  endfacet
  facet normal 0 0 1
    outer loop
      vertex 30.1878 -6 6
      vertex 35.4714 -1.10833 6
      vertex 33.1723 -1.10833 6
    endloop
  endfacet
  facet normal 0 0 1
    outer loop
      vertex 30.1878 -6 6
      vertex 33.1723 -1.10833 6
      vertex 32.4869 -1.10833 6
    endloop
  endfacet
  facet normal -0 0 1
    outer loop
      vertex 30.937 0.95 6
      vertex 32.4869 -1.10833 6
      vertex 31.7377 0.95 6
    endloop
  endfacet
  facet normal 0 0 1
    outer loop
      vertex 30.1878 -1.10833 6
      vertex 32.4869 -1.10833 6
      vertex 30.937 0.95 6
    endloop
  endfacet
  facet normal 0 0 1
    outer loop
      vertex 30.1878 -6 6
      vertex 32.4869 -1.10833 6
      vertex 30.1878 -1.10833 6
    endloop
  endfacet
  facet normal 0 0 1
    outer loop
      vertex 38.4559 -1.10833 6
      vertex 30.1878 -6 6
      vertex 44.5751 -6 6
    endloop
  endfacet
  facet normal -0.939688 0.342032 0
    outer loop
      vertex 33.1723 -1.10833 0
      vertex 33.9215 0.95 6
      vertex 33.9215 0.95 0
    endloop
  endfacet
  facet normal -0.939688 0.342032 0
    outer loop
      vertex 33.9215 0.95 6
      vertex 33.1723 -1.10833 0
      vertex 33.1723 -1.10833 6
    endloop
  endfacet
  facet normal 0 1 -0
    outer loop
      vertex 34.7222 0.95 0
      vertex 33.9215 0.95 6
      vertex 34.7222 0.95 6
    endloop
  endfacet
  facet normal 0 1 0
    outer loop
      vertex 33.9215 0.95 6
      vertex 34.7222 0.95 0
      vertex 33.9215 0.95 0
    endloop
  endfacet
  facet normal 0.939688 0.342032 0
    outer loop
      vertex 35.4714 -1.10833 6
      vertex 34.7222 0.95 0
      vertex 34.7222 0.95 6
    endloop
  endfacet
  facet normal 0.939688 0.342032 0
    outer loop
      vertex 34.7222 0.95 0
      vertex 35.4714 -1.10833 6
      vertex 35.4714 -1.10833 0
    endloop
  endfacet
  facet normal 0 1 -0
    outer loop
      vertex 36.1569 -1.10833 0
      vertex 35.4714 -1.10833 6
      vertex 36.1569 -1.10833 6
    endloop
  endfacet
  facet normal 0 1 0
    outer loop
      vertex 35.4714 -1.10833 6
      vertex 36.1569 -1.10833 0
      vertex 35.4714 -1.10833 0
    endloop
  endfacet
  facet normal -0.939703 0.341992 0
    outer loop
      vertex 36.1569 -1.10833 0
      vertex 36.906 0.95 6
      vertex 36.906 0.95 0
    endloop
  endfacet
  facet normal -0.939703 0.341992 0
    outer loop
      vertex 36.906 0.95 6
      vertex 36.1569 -1.10833 0
      vertex 36.1569 -1.10833 6
    endloop
  endfacet
  facet normal 0 1 -0
    outer loop
      vertex 37.7067 0.95 0
      vertex 36.906 0.95 6
      vertex 37.7067 0.95 6
    endloop
  endfacet
  facet normal 0 1 0
    outer loop
      vertex 36.906 0.95 6
      vertex 37.7067 0.95 0
      vertex 36.906 0.95 0
    endloop
  endfacet
  facet normal 0.939688 0.342032 0
    outer loop
      vertex 38.4559 -1.10833 6
      vertex 37.7067 0.95 0
      vertex 37.7067 0.95 6
    endloop
  endfacet
  facet normal 0.939688 0.342032 0
    outer loop
      vertex 37.7067 0.95 0
      vertex 38.4559 -1.10833 6
      vertex 38.4559 -1.10833 0
    endloop
  endfacet
  facet normal 0 1 -0
    outer loop
      vertex 39.1414 -1.10833 0
      vertex 38.4559 -1.10833 6
      vertex 39.1414 -1.10833 6
    endloop
  endfacet
  facet normal 0 1 0
    outer loop
      vertex 38.4559 -1.10833 6
      vertex 39.1414 -1.10833 0
      vertex 38.4559 -1.10833 0
    endloop
  endfacet
  facet normal -0.939703 0.341992 0
    outer loop
      vertex 39.1414 -1.10833 0
      vertex 39.8905 0.95 6
      vertex 39.8905 0.95 0
    endloop
  endfacet
  facet normal -0.939703 0.341992 0
    outer loop
      vertex 39.8905 0.95 6
      vertex 39.1414 -1.10833 0
      vertex 39.1414 -1.10833 6
    endloop
  endfacet
  facet normal 0 1 -0
    outer loop
      vertex 40.6912 0.95 0
      vertex 39.8905 0.95 6
      vertex 40.6912 0.95 6
    endloop
  endfacet
  facet normal 0 1 0
    outer loop
      vertex 39.8905 0.95 6
      vertex 40.6912 0.95 0
      vertex 39.8905 0.95 0
    endloop
  endfacet
  facet normal 0.939688 0.342032 0
    outer loop
      vertex 41.4404 -1.10833 6
      vertex 40.6912 0.95 0
      vertex 40.6912 0.95 6
    endloop
  endfacet
  facet normal 0.939688 0.342032 0
    outer loop
      vertex 40.6912 0.95 0
      vertex 41.4404 -1.10833 6
      vertex 41.4404 -1.10833 0
    endloop
  endfacet
  facet normal 0 1 -0
    outer loop
      vertex 42.1259 -1.10833 0
      vertex 41.4404 -1.10833 6
      vertex 42.1259 -1.10833 6
    endloop
  endfacet
  facet normal 0 1 0
    outer loop
      vertex 41.4404 -1.10833 6
      vertex 42.1259 -1.10833 0
      vertex 41.4404 -1.10833 0
    endloop
  endfacet
  facet normal -0.939703 0.341992 0
    outer loop
      vertex 42.1259 -1.10833 0
      vertex 42.875 0.95 6
      vertex 42.875 0.95 0
    endloop
  endfacet
  facet normal -0.939703 0.341992 0
    outer loop
      vertex 42.875 0.95 6
      vertex 42.1259 -1.10833 0
      vertex 42.1259 -1.10833 6
    endloop
  endfacet
  facet normal 0 1 -0
    outer loop
      vertex 43.6758 0.95 0
      vertex 42.875 0.95 6
      vertex 43.6758 0.95 6
    endloop
  endfacet
  facet normal 0 1 0
    outer loop
      vertex 42.875 0.95 6
      vertex 43.6758 0.95 0
      vertex 42.875 0.95 0
    endloop
  endfacet
  facet normal 0.939703 0.341992 0
    outer loop
      vertex 44.4249 -1.10833 6
      vertex 43.6758 0.95 0
      vertex 43.6758 0.95 6
    endloop
  endfacet
  facet normal 0.939703 0.341992 0
    outer loop
      vertex 43.6758 0.95 0
      vertex 44.4249 -1.10833 6
      vertex 44.4249 -1.10833 0
    endloop
  endfacet
  facet normal 0 1 -0
    outer loop
      vertex 44.5751 -1.10833 0
      vertex 44.4249 -1.10833 6
      vertex 44.5751 -1.10833 6
    endloop
  endfacet
  facet normal 0 1 0
    outer loop
      vertex 44.4249 -1.10833 6
      vertex 44.5751 -1.10833 0
      vertex 44.4249 -1.10833 0
    endloop
  endfacet
  facet normal 1 -0 0
    outer loop
      vertex 44.5751 -6 6
      vertex 44.5751 -1.10833 0
      vertex 44.5751 -1.10833 6
    endloop
  endfacet
  facet normal 1 0 0
    outer loop
      vertex 44.5751 -1.10833 0
      vertex 44.5751 -6 6
      vertex 44.5751 -6 0
    endloop
  endfacet
endsolid OpenSCAD_Model
